<?xml version="1.0" encoding="UTF-8"?>
<svg id="Layer_1" xmlns="http://www.w3.org/2000/svg" version="1.1" viewBox="0 0 124.31 113.65">
  <!-- Generator: Adobe Illustrator 29.6.0, SVG Export Plug-In . SVG Version: 2.1.1 Build 207)  -->
  <defs>
    <style>
      .st0, .st1 {
        fill: #fff;
      }

      .st0, .st2 {
        display: none;
      }

      .st3 {
        opacity: .9;
      }
    </style>
  </defs>
  <g class="st2">
    <path class="st1" d="M30.29,49.82c1.2,2.7,2.9,5.5,5.1,8.2,2.2,2.8,5,5.7,8.1,8.6,2.9,2.7,6.1,5.7,9.5,8.8l5.1-5.1c-3-2.7-5.8-5.2-8.3-7.5-2.9-2.7-5.4-5.2-7.4-7.6-2.1-2.4-3.7-4.7-4.8-6.9-1.2-2.3-1.8-4.6-1.8-6.8,0-3.1,1-5.7,3.1-7.8s4.7-3.1,7.8-3.1,5.8,1,7.7,2.9c1.6,1.6,3.8,4,6.6,7.3h3.3c2.7-3.1,4.8-5.5,6.4-7.1,1.9-2,4.6-3.1,8-3.1s4.8.8,6.6,2.2c1.5,1.2,2.6,2.7,3.3,4.4,1.3-.1,2.8-.2,4.3-.2s2.3,0,3.3.1c-.9-3.6-2.7-6.7-5.5-9.3-3.3-3-7.2-4.5-12-4.5h-4l.8-2.1c.3-.8.5-1.5.7-2.2.1-.7.2-1.5.2-2.3,0-3.9-1.3-7.1-4-9.8s-5.9-4-9.8-4-7.1,1.3-9.8,4c-2.7,2.7-4,5.9-4,9.8s0,1.6.2,2.4c.2.8.4,1.5.7,2.3l.8,2.1h-3.9c-5.2,0-9.4,1.7-12.9,5.2s-5.2,7.7-5.2,12.9.6,5.6,1.7,8.3l.1-.1ZM58.09,12.22c1.3-1.3,2.8-1.9,4.7-1.9s3.4.6,4.7,1.9c1.3,1.3,1.9,2.8,1.9,4.7s-.6,3.4-1.9,4.7-2.8,1.9-4.7,1.9-3.4-.6-4.7-1.9c-1.3-1.3-1.9-2.8-1.9-4.7s.6-3.4,1.9-4.7Z"/>
    <path class="st1" d="M79.19,112.22c3.7,0,7-.9,9.8-2.8,2.9-1.9,5.1-4.5,6.7-7.8l1.1-2.2,1.5,2c1.2,1.6,2.8,2.8,4.6,3.7,1.9.9,3.8,1.3,5.8,1.3,3.9,0,7.2-1.3,9.8-4,2.7-2.7,4-5.9,4-9.8s-1.1-6.2-3.2-8.9c-2.1-2.6-4.8-4.1-8.1-4.5l-2.5-.3,1.4-2.1c1.1-1.6,2-3.3,2.5-5,.6-1.7.9-3.6.9-5.6,0-5.9-2-10.3-6.1-13.5-4.1-3.3-9-4.9-14.5-4.9s-8.8.7-13.9,2.1c-4.8,1.3-10.2,3-16.3,4.9l1.9,7c5.7-1.9,10.9-3.5,15.2-4.7,4.9-1.4,9.2-2.1,12.9-2.1s6.3.8,9,2.5c3,1.8,4.5,4.7,4.5,8.7,0,6.8-3.7,9.3-6.9,10.2-3.7,1-7.2,1.9-10.6,2.6l-1.7,2.9c.8,2.4,1.6,4.5,2.2,6.2.7,2,1.1,4,1.1,5.7,0,3-1.1,5.7-3.2,7.8-2.1,2.2-4.8,3.3-7.9,3.3s-2.1-.1-3.2-.4c-.6-.2-1.2-.4-1.8-.7-.6,1-1.2,2.1-1.8,3.2-.6,1.1-1.3,2.1-1.9,3,1.1.6,2.3,1.1,3.5,1.4,1.7.5,3.4.7,5.1.7l.1.1ZM103.89,87.72c1.3-1.3,2.8-1.9,4.7-1.9s3.4.7,4.7,2c1.2,1.3,1.9,2.9,1.9,4.7s-.6,3.4-1.8,4.7c-1.2,1.3-2.8,1.9-4.6,1.9s-3.4-.7-4.8-2c-1.3-1.3-2-2.9-2-4.8s.6-3.4,1.9-4.7v.1Z"/>
    <path class="st1" d="M7.09,102.32c2.7,2.7,5.9,4,9.8,4s3.9-.4,5.8-1.3c1.8-.9,3.4-2.1,4.6-3.7l1.5-2,1.1,2.2c1.6,3.3,3.8,5.9,6.7,7.8,2.8,1.9,6.1,2.8,9.7,2.8s8.6-1.4,11.6-4.2c3.1-2.9,5.6-6.5,7.6-10.8,1.9-4.3,3.5-9,4.6-13.8,1-4.3,1.8-8.2,2.5-11.7l-7-1.9c-.4,2-.9,4.5-1.4,7.6-.7,4-1.8,8.1-3.2,12.1-1.4,4-3.2,7.6-5.4,10.6-2.4,3.3-5.5,4.9-9.2,4.9s-5.7-1.1-7.8-3.3c-2.1-2.2-3.2-4.8-3.2-7.7s.4-3.6,1.1-5.7c.6-1.8,1.4-3.8,2.2-6.3l-1.7-2.9c-3.3-.7-6.9-1.5-10.5-2.6-3.2-.9-7-3.4-7-10.2s.4-3.3,1.2-4.8c.6-1.1,1.3-2.1,2.2-2.9-.7-1.1-1.3-2.3-1.9-3.7-.4-1.1-.8-2.1-1.2-3.1-2.2,1.6-3.9,3.5-5.2,5.7-1.6,2.7-2.4,5.7-2.4,8.8s.3,3.8.9,5.6c.6,1.8,1.4,3.5,2.5,5l1.4,2.1-2.5.3c-3.3.4-5.9,1.8-8.1,4.5-2.2,2.7-3.2,5.6-3.2,8.9s1.3,7.1,4,9.8l-.1-.1ZM12.19,87.82c1.3-1.3,2.8-1.9,4.7-1.9s3.4.6,4.7,1.9c1.3,1.3,1.9,2.8,1.9,4.7s-.6,3.4-1.9,4.7c-1.3,1.3-2.8,1.9-4.7,1.9s-3.4-.6-4.7-1.9-1.9-2.8-1.9-4.7.6-3.4,1.9-4.7h0Z"/>
  </g>
  <g class="st2">
    <rect class="st1" x="91.66" y="82.34" width="8.2" height="19.4" transform="translate(-35.34 113.36) rotate(-53.1)"/>
    <rect class="st1" x="85.71" y="20" width="19.4" height="8.2" transform="translate(4.64 62.11) rotate(-36.9)"/>
    <path class="st1" d="M73.58,43.06v30.1c1.3-1.5,2.3-3.2,3.2-5.1,1.4-3,2.2-6.3,2.2-9.9s-.7-6.9-2.2-9.9c-.9-1.9-2-3.6-3.2-5.1v-.1Z"/>
    <path class="st1" d="M64.88,89.06V27.16l-26.1,15.7H15.98c-2.7,0-4.9.9-6.9,2.9s-2.9,4.2-2.9,6.9v11.2c0,2.7.9,4.9,2.9,6.9s4.2,2.9,6.9,2.9h7.1v22.4h8.2v-22.4h7.5l26.1,15.7v-.3ZM14.48,65.16v-14.2h26.6l15.6-9.3v32.7l-15.6-9.3H14.48v.1Z"/>
    <rect class="st1" x="95.98" y="53.96" width="19.4" height="8.2"/>
  </g>
  <g class="st2">
    <path class="st1" d="M48.08,61.82l.7.7c.4.4.8.7,1.3,1s1.1.6,1.8.9l.9.3.8,6.6h8.5l.8-6.6.9-.3c.7-.2,1.3-.5,1.8-.9.5-.3,1-.7,1.3-1l.7-.7,6.2,2.7,4.2-7.2-5.3-4,.2-1c.2-.6.2-1.3.2-1.9s0-1.3-.2-1.9l-.2-1,5.3-4-4.2-7.2-6.2,2.7-.7-.7c-.4-.4-.8-.7-1.3-1s-1.1-.6-1.8-.9l-.9-.3-.8-6.6h-8.5l-.8,6.6-.9.3c-.7.2-1.2.5-1.8.9-.5.3-1,.7-1.3,1l-.7.7-6.2-2.7-4.3,7.2,5.3,4-.2,1c-.2.6-.2,1.3-.2,1.9s0,1.3.2,1.9l.2,1-5.3,4,4.3,7.2,6.2-2.7ZM50.78,43.42c1.9-1.9,4.3-2.9,7-2.9s5.1,1,7,2.9,2.9,4.3,2.9,7-1,5.1-2.9,7-4.3,2.9-7,2.9-5.1-1-7-2.9-2.9-4.3-2.9-7,1-5.1,2.9-7Z"/>
    <path class="st1" d="M104.98,37.52c-2.6-10.6-8.3-19.4-17-26S69.18,1.52,57.88,1.52s-25.2,4.8-34.7,14.3-14.3,21.1-14.3,34.7,1.4,13.6,4.3,19.9c2.8,6.3,6.9,11.8,12,16.5l.5.4v23.3h8.2v-27l-3.2-2.9c-4.3-4-7.7-8.7-10.1-13.9s-3.6-10.8-3.6-16.6c0-11.2,4-20.8,11.9-28.7,7.9-7.8,17.6-11.8,28.8-11.8s17.8,2.8,25,8.3,12.1,12.8,14.3,21.6l5.8,23.6h-15.5v28h-22.4v19.4h8.2v-11.2h12.7c2.7,0,4.9-.9,6.9-2.9,1.9-1.9,2.9-4.2,2.9-6.9v-18.3h12.7c1.4,0,2.5-.5,3.3-1.6s1.1-2.2.7-3.5l-7.3-28.7h0Z"/>
  </g>
  <path class="st0" d="M88.83,111.02l25.9-25.9-30.1-30.1,22.2-22.4c1-1,1.7-2.1,2.2-3.2.5-1.2.7-2.4.7-3.7s-.2-2.6-.7-3.8-1.2-2.3-2.2-3.3l-7.4-7.6c-1-1-2.1-1.7-3.3-2.2-2.4-1-5.1-1-7.6,0-1.2.5-2.3,1.2-3.3,2.2l-22.2,22.4L32.73,3.12,6.83,29.02l30.1,30.1-25.1,25.1v21.7h21.7l25.1-25.1,30.1,30.1.1.1ZM93.23,16.82l8,8-2.1,2.1-8-8,2.1-2.1ZM88.83,70.82l-6,6.2,5.7,5.7,6.2-6,8.4,8.4-14.3,14.3-24.2-24.4,14.2-14.2,10.1,9.9-.1.1ZM18.43,29.12l14.3-14.3,8.4,8.4-6,6.2,5.7,5.7,6.2-6.2,9.9,10.1-14.1,14.3-24.4-24.3v.1ZM30.03,97.92h-10v-10l56.3-56.4,10.1,10.1-56.4,56.3Z"/>
  <g class="st2">
    <path class="st1" d="M70.68,66.92c7.3-7.3,11-16.3,11-26.7s-3.7-19.5-11-26.7S54.38,2.52,43.98,2.52s-19.5,3.7-26.7,11S6.28,29.82,6.28,40.22s3.7,19.5,11,26.7c7.3,7.3,16.3,11,26.7,11s19.5-3.7,26.7-11ZM14.38,40.12c0-8.1,2.9-15.2,8.6-20.9s12.8-8.6,20.9-8.6,15.2,2.9,20.9,8.6c5.7,5.7,8.6,12.8,8.6,20.9s-2.9,15.2-8.6,20.9c-5.7,5.7-12.8,8.6-20.9,8.6s-15.2-2.9-20.9-8.6-8.6-12.8-8.6-20.9Z"/>
    <path class="st1" d="M49.48,111.52h56c2.7,0,4.9-.9,6.9-2.9,1.9-1.9,2.9-4.2,2.9-6.9v-56c0-2.7-.9-4.9-2.9-6.9s-4.2-2.9-6.9-2.9h-9.9v8.4h11.4v59h-59v-11.4h-8.3v9.9c0,2.7.9,4.9,2.9,6.9,1.9,1.9,4.2,2.9,6.9,2.9v-.1Z"/>
  </g>
  <g class="st2">
    <path class="st1" d="M74.18,42.62c1-1.8,1.5-3.6,1.5-5.6,0-4.3-1.4-7.5-4.3-9.6-3-2.2-6.5-3.3-10.6-3.3s-6.9,1-9.5,3.1c-2.2,1.8-3.8,3.9-4.9,6.4l5.1,2c.6-1.3,1.4-2.5,2.4-3.7,1.6-1.9,3.9-2.9,6.9-2.9s5.3.9,6.8,2.6c1.5,1.7,2.3,3.6,2.3,5.7s-.6,3.7-1.7,5.2c-1,1.3-2.2,2.7-3.5,4h0c-3.9,3.4-5.2,5.2-5.6,6.2-.4.9-.8,2.8-.9,6.7h5.5c0-2.3.4-4,1-5.1.4-.8,1.4-2.4,5.6-6.6s2.9-3.3,4-5.2l-.1.1Z"/>
    <path class="st1" d="M63.68,76.12c.8-.8,1.3-1.8,1.3-3s-.4-2.2-1.3-3c-.8-.8-1.8-1.3-3-1.3s-2.2.4-3,1.3c-.8.8-1.3,1.8-1.3,3s.4,2.2,1.3,3c.8.8,1.8,1.3,3,1.3s2.2-.4,3-1.3Z"/>
    <path class="st1" d="M93.68,15.22c-4.2-4.2-9.2-7.6-14.8-10-5.6-2.4-11.6-3.6-18.1-3.6-12.9,0-23.9,4.5-32.9,13.5s-13.5,20-13.5,32.9,4.5,23.9,13.5,32.9,20,13.5,32.9,13.5h2.8l1.3,16.1c5.6-2.9,10.9-6.3,15.7-10.3,5.4-4.4,10.1-9.4,14-14.8,3.9-5.4,7-11.3,9.2-17.7,2.2-6.3,3.4-12.9,3.4-19.8s-1.2-12.5-3.6-18.1-5.8-10.5-10-14.8l.1.2ZM92.48,73.22c-4.2,7.7-9.8,14.5-16.6,20.2l-2.5,2.1v-9.3h-12.6c-10.6,0-19.7-3.7-27.1-11.1-7.4-7.4-11.1-16.5-11.1-27.1s3.7-19.7,11.1-27.1c7.4-7.4,16.5-11.1,27.1-11.1s19.7,3.7,27.1,11.1c7.4,7.4,11.1,16.5,11.1,27.1s-2.2,17.4-6.5,25.2h0Z"/>
  </g>
  <g class="st2">
    <rect class="st1" x="55.98" y="50.27" width="9.5" height="53.4"/>
    <polygon class="st1" points="115.68 75.37 81.08 75.37 81.08 84.87 93.58 84.87 93.58 103.67 103.08 103.67 103.08 84.87 115.68 84.87 115.68 75.37"/>
    <polygon class="st1" points="43.48 34.77 78.08 34.77 78.08 25.27 65.58 25.27 65.58 6.47 55.98 6.47 55.98 25.27 43.48 25.27 43.48 34.77"/>
    <rect class="st1" x="18.48" y="6.47" width="9.5" height="28.3"/>
    <polygon class="st1" points="40.48 50.27 5.88 50.27 5.88 59.77 18.48 59.77 18.48 103.67 27.98 103.67 27.98 59.77 40.48 59.77 40.48 50.27"/>
    <rect class="st1" x="93.58" y="6.47" width="9.5" height="53.4"/>
  </g>
  <g class="st2">
    <path class="st1" d="M74.43,37.57c4,3.2,6.6,7.3,8,12.1l8.6,2.6c-.8-7.4-4-13.9-9.5-19.1-6-5.7-13.3-8.7-21.8-8.7s-16.2,3.1-22.3,9.2-9.2,13.6-9.2,22.3,2.9,15.8,8.7,21.8c5.3,5.5,11.7,8.7,19.1,9.5l-2.6-8.6c-4.9-1.4-9-4-12.1-8-3.4-4.2-5.1-9.1-5.1-14.7s2.3-12,6.9-16.6,10.2-6.9,16.6-6.9,10.5,1.7,14.7,5.1h0Z"/>
    <polygon class="st1" points="115.33 102.87 91.23 78.67 109.73 72.57 62.03 58.17 76.33 105.97 82.43 87.47 106.63 111.57 115.33 102.87"/>
    <path class="st1" d="M97.63,18.17c-4.8-4.8-10.5-8.6-17-11.4-6.5-2.8-13.5-4.2-20.9-4.2s-14.4,1.4-20.9,4.2-12.2,6.6-17,11.4c-4.8,4.8-8.6,10.5-11.4,17s-4.2,13.5-4.2,20.9,1.4,14.4,4.2,20.9c2.8,6.5,6.6,12.2,11.4,17s10.5,8.6,17,11.4c6.5,2.8,13.5,4.2,20.9,4.2h3l-2.5-8h-.5c-12.6,0-23.5-4.4-32.3-13.2s-13.2-19.6-13.2-32.3,4.4-23.5,13.2-32.3c8.8-8.8,19.6-13.2,32.3-13.2s23.5,4.4,32.3,13.2,13.2,19.6,13.2,32.3v.5l8,2.5v-3c0-7.4-1.4-14.4-4.2-20.9-2.8-6.5-6.6-12.2-11.4-17h0Z"/>
  </g>
  <g class="st2">
    <path class="st1" d="M30.33,56.22v7.7h16.3c.8-1.8,1.7-3.5,2.7-5.1.6-.9,1.2-1.8,1.9-2.6h-20.9Z"/>
    <path class="st1" d="M30.33,77.72v7.7h13.7c-.2-1.3-.4-2.5-.5-3.8,0-1.3-.1-2.7,0-4h-13.1l-.1.1Z"/>
    <path class="st1" d="M18.13,2.52c-2.6,0-4.7.9-6.5,2.7s-2.7,4-2.7,6.5v85.9c0,2.6.9,4.7,2.7,6.5s4,2.7,6.5,2.7h38.5c-.8-.7-1.6-1.4-2.4-2.2-1.7-1.7-3.2-3.6-4.6-5.5H16.63V10.22h40.6v26.8h26.8v5.7c1.5.2,2.9.4,4.3.8,1.1.3,2.3.6,3.4,1v-10.6L60.43,2.62H18.13v-.1Z"/>
    <path class="st1" d="M86.23,100.62c2-.6,3.9-1.5,5.7-2.6l1-.7,14.3,14.3,5.4-5.4-14.3-14.3.7-1c1.2-1.7,2-3.7,2.6-5.7s.9-4.2.9-6.4c0-6.4-2.2-11.6-6.6-16.1-4.4-4.4-9.7-6.6-16-6.6s-11.6,2.2-16.1,6.6c-4.4,4.4-6.6,9.7-6.6,16.1s2.2,11.6,6.6,16,9.7,6.6,16.1,6.6,4.3-.3,6.4-.9l-.1.1ZM64.93,78.92c0-4.2,1.5-7.7,4.3-10.6,2.9-2.9,6.4-4.3,10.6-4.3s7.7,1.5,10.6,4.3c2.9,2.9,4.3,6.4,4.3,10.6s-1.5,7.7-4.3,10.6c-2.9,2.9-6.4,4.3-10.6,4.3s-7.7-1.5-10.6-4.3c-2.9-2.9-4.3-6.4-4.3-10.6Z"/>
  </g>
  <g class="st2">
    <path class="st1" d="M43.88,57.57c-2,0-3.6.7-4.9,2-1.4,1.4-2,3-2,4.9s.7,3.6,2,4.9c1.4,1.4,3,2,4.9,2s3.6-.7,4.9-2c1.4-1.4,2-3,2-4.9s-.7-3.6-2-4.9c-1.4-1.4-3-2-4.9-2Z"/>
    <rect class="st1" x="73.58" y="74.47" width="19.5" height="5.5"/>
    <rect class="st1" x="73.58" y="57.57" width="19.5" height="5.5"/>
    <path class="st1" d="M45.38,29.37H15.68c-2.7,0-5,.9-6.9,2.9s-2.9,4.2-2.9,6.9v62c0,2.7.9,5,2.9,6.9,1.9,1.9,4.2,2.9,6.9,2.9h90.2c2.7,0,5-.9,6.9-2.9,1.9-1.9,2.9-4.2,2.9-6.9v-62c0-2.7-.9-5-2.9-6.9s-4.2-2.9-6.9-2.9h-29.7V10.97c0-2.7-.9-5-2.9-6.9-1.9-1.9-4.2-2.9-6.9-2.9h-11.3c-2.7,0-5,.9-6.9,2.9s-2.9,4.2-2.9,6.9v18.4h.1ZM53.68,9.47h14.3v31.2h-14.3V9.47ZM55.18,48.87h11.3c2.7,0,5-.9,6.9-2.9,1.9-1.9,2.9-4.2,2.9-6.9v-1.5h31.2v65H14.28V37.57h31.2v1.5c0,2.7.9,5,2.9,6.9s4.2,2.9,6.9,2.9h-.1Z"/>
    <path class="st1" d="M55.08,81.07c-1.8-.8-3.6-1.4-5.4-1.8-3.6-.8-8-.8-11.6,0-1.8.4-3.6,1-5.4,1.8-1.3.6-2.4,1.5-3.1,2.6-.7,1.1-1.1,2.3-1.1,3.6v1h30.8v-1c0-1.3-.4-2.5-1.1-3.6-.7-1.1-1.8-2-3.1-2.6h0Z"/>
  </g>
  <path class="st0" d="M53.94,26.25c-1.48-3.32-5.39-4.8-8.71-3.25l-7.75,3.54-10.11-3.91c-1.62-.66-3.39-.59-5.02.15-1.62.74-2.88,1.99-3.47,3.62-.3.74-.44,1.55-.44,2.29,0,4.28-.37,22.28-.37,26.41l-11.81,17.27c-.96,1.48-1.33,3.17-1.03,4.94.3,1.7,1.33,3.25,2.73,4.21,1.11.81,2.43,1.18,3.69,1.18,2.14,0,4.13-1.03,5.46-2.88l12.84-18.74c.52-.66.89-1.4,1.03-2.21l1.33.66.44,13.58c0,1.77.81,3.39,2.07,4.57,1.25,1.18,2.95,1.84,4.72,1.77,1.77,0,3.39-.81,4.57-2.07s1.84-2.95,1.77-4.72l-.59-17.63c-.07-2.51-1.55-4.72-3.76-5.76l-10.18-4.72.15-6.12,3.76,1.48c1.7.66,3.54.66,5.16-.07l10.26-4.65c3.32-1.48,4.8-5.39,3.25-8.71M49.15,31.56l-10.26,4.65c-.74.3-1.55.37-2.29,0h0l-6.27-2.43c-.59-.22-1.18-.15-1.7.22-.52.37-.81.89-.81,1.48l-.15,10.03c0,.74.44,1.4,1.03,1.7l11.29,5.24c.96.44,1.62,1.4,1.7,2.51l.59,17.63c0,.74-.22,1.48-.81,2.07-.52.59-1.25.89-1.99.89s-1.48-.22-2.07-.74-.89-1.25-.89-1.99l-.44-14.68c0-.66-.44-1.33-1.03-1.62l-4.8-2.21c-.59-.3-1.25-.22-1.77.15-.52.37-.89.89-.89,1.55v1.18c0,.59-.22,1.18-.59,1.7h0l-12.84,18.74c-.89,1.33-2.66,1.62-3.98.74-.66-.44-1.03-1.11-1.18-1.84-.15-.74,0-1.55.44-2.14l12.1-17.71c.22-.3.3-.66.3-1.03,0-4.28.3-22.65.37-26.93,0-.37,0-.66.15-1.03.3-.74.81-1.25,1.55-1.62.37-.15.74-.22,1.11-.22s.74,0,1.03.22l10.85,4.21c.44.15.96.15,1.4,0l8.48-3.84c1.4-.66,3.1,0,3.76,1.4.66,1.48,0,3.17-1.4,3.84M119.09,52.88c-.52-.37-1.18-.37-1.77-.15l-19.11,8.48c-.44.22-.81.59-.96,1.03l-1.99,5.09h-16.75l-1.99-5.09c-.15-.52-.59-.89-1.03-1.03-.22-.07-.52-.22-.74-.3-.52-.22-1.03-.22-1.48,0l-18.3,8.12c-.66.3-1.11.96-1.11,1.7v39.99c0,1.03.81,1.84,1.84,1.84h62.35c1.03,0,1.84-.81,1.84-1.84v-56.22c0-.59-.3-1.18-.81-1.55M116.21,108.81h-58.66v-36.89l16.01-7.08,1.92,5.02c.3.74.96,1.18,1.77,1.18h19.33c.74,0,1.48-.44,1.77-1.18l2.14-5.61,15.79-7.01v51.57h-.07ZM47.23,80.33h-15.79c-1.03,0-1.84.81-1.84,1.84v28.48c0,1.03.81,1.84,1.84,1.84h15.79c1.03,0,1.84-.81,1.84-1.84v-28.48c0-1.03-.81-1.84-1.84-1.84M45.38,108.81h-12.03v-24.79h12.03s0,24.79,0,24.79ZM23.03,91.18H7.31c-1.03,0-1.84.81-1.84,1.84v17.63c0,1.03.81,1.84,1.84,1.84h15.72c1.03,0,1.84-.81,1.84-1.84v-17.63c0-1.03-.81-1.84-1.84-1.84M21.18,108.81h-12.03v-13.94h12.03s0,13.94,0,13.94ZM58.22,38.13l3.76,1.48c.59,1.99,1.33,3.91,2.36,5.76l-1.62,3.69c-.3.66-.15,1.55.37,2.07l5.31,5.39c.59.52,1.4.66,2.07.37l3.69-1.62c1.84,1.03,3.76,1.84,5.76,2.36l1.48,3.76c.3.74.96,1.18,1.7,1.18h7.6c.74,0,1.48-.44,1.77-1.18l1.4-3.76c1.99-.59,3.91-1.33,5.76-2.36l3.69,1.62c.66.3,1.55.15,2.07-.37l5.39-5.39c.52-.52.66-1.33.37-2.07l-1.62-3.69c1.03-1.84,1.77-3.76,2.36-5.76l3.76-1.48c.66-.3,1.18-.96,1.18-1.7v-7.6c0-.74-.52-1.48-1.18-1.7l-3.76-1.48c-.59-1.99-1.33-3.91-2.36-5.76l1.62-3.69c.3-.66.15-1.55-.37-2.07l-5.39-5.39c-.52-.52-1.4-.66-2.07-.37l-3.69,1.62c-1.77-1.03-3.76-1.84-5.76-2.36l-1.4-3.76c-.3-.74-.96-1.18-1.77-1.18h-7.6c-.74,0-1.4.44-1.7,1.18l-1.48,3.76c-1.99.59-3.91,1.33-5.76,2.36l-3.69-1.62c-.66-.3-1.48-.15-2.07.37l-5.31,5.39c-.59.52-.66,1.33-.37,2.07l1.62,3.69c-1.03,1.84-1.84,3.76-2.36,5.76l-3.76,1.48c-.74.3-1.18.96-1.18,1.7v7.6c0,.74.52,1.48,1.18,1.7M60.73,30.08l3.47-1.33c.59-.22,1.03-.74,1.11-1.33.52-2.29,1.4-4.43,2.66-6.49.3-.52.37-1.18.15-1.7l-1.48-3.39,3.54-3.54,3.39,1.48c.59.22,1.18.22,1.7-.15,1.99-1.25,4.21-2.14,6.49-2.66.59-.15,1.03-.59,1.33-1.11l1.33-3.47h5.02l1.33,3.47c.22.59.66.96,1.33,1.11,2.29.52,4.43,1.48,6.42,2.66.52.3,1.18.37,1.7.15l3.39-1.48,3.54,3.54-1.48,3.39c-.22.59-.22,1.18.15,1.7,1.25,1.99,2.14,4.21,2.66,6.49.15.59.59,1.11,1.11,1.33l3.47,1.33v5.02l-3.47,1.33c-.59.22-1.03.74-1.11,1.33-.52,2.29-1.4,4.43-2.66,6.49-.3.52-.37,1.18-.15,1.7l1.48,3.39-3.54,3.54-3.39-1.48c-.59-.22-1.18-.22-1.7.15-1.99,1.25-4.21,2.14-6.42,2.66-.59.15-1.11.59-1.33,1.11l-1.33,3.47h-5.02l-1.33-3.47c-.22-.59-.74-.96-1.33-1.11-2.29-.52-4.43-1.48-6.49-2.66-.52-.3-1.18-.37-1.7-.15l-3.39,1.48-3.54-3.54,1.48-3.39c.22-.59.22-1.18-.15-1.7-1.25-1.99-2.14-4.21-2.66-6.49-.15-.59-.59-1.11-1.11-1.33l-3.47-1.33v-5.02ZM86.85,50.89c10.11,0,18.3-8.19,18.3-18.3s-8.19-18.3-18.3-18.3-18.3,8.19-18.3,18.3,8.19,18.3,18.3,18.3M86.85,18.06c8.04,0,14.61,6.57,14.61,14.54s-6.57,14.61-14.61,14.61-14.61-6.57-14.61-14.61,6.57-14.54,14.61-14.54M86.85,38.94c3.47,0,6.35-2.8,6.35-6.35s-2.88-6.35-6.35-6.35-6.35,2.8-6.35,6.35,2.8,6.35,6.35,6.35M86.85,30.01c1.48,0,2.66,1.18,2.66,2.66s-1.18,2.66-2.66,2.66-2.58-1.18-2.58-2.66,1.18-2.66,2.58-2.66M26.79,22.19c5.39,0,9.74-4.35,9.74-9.81s-4.35-9.74-9.74-9.74-9.81,4.35-9.81,9.74,4.43,9.81,9.81,9.81M26.79,6.33c3.32,0,6.05,2.73,6.05,6.05s-2.73,6.05-6.05,6.05-6.05-2.73-6.05-6.05,2.73-6.05,6.05-6.05"/>
  <g class="st2">
    <path class="st1" d="M18.77,80.96c-.91,0-1.75-.65-1.81-1.55v-25.28c.13-2.97,2.65-5.3,5.62-5.17h14.22c1.1,0,1.94-.9,1.94-2,0-1.03-.84-1.87-1.94-1.94h-14.22c-5.11-.13-9.37,3.94-9.5,9.05v25.28c.06,3.1,2.59,5.49,5.69,5.43.91,0,1.75.65,1.81,1.55v22.75c0,1.1.91,1.94,2,1.94,1.03,0,1.87-.84,1.94-1.94v-22.75c-.06-3.04-2.59-5.49-5.69-5.43l-.06.06Z"/>
    <path class="st1" d="M82.05,81.09c-.91,0-1.75-.65-1.81-1.55v-34.07c-.19-5.75-4.98-10.28-10.67-10.15h-16.42c-5.75-.13-10.54,4.4-10.67,10.15v33.87c-.06.9-.84,1.62-1.81,1.55-3.04,0-5.62,2.39-5.69,5.43v22.75c0,1.1.91,1.94,2,1.87,1.03,0,1.87-.84,1.87-1.87v-22.75c.06-.9.84-1.62,1.81-1.55,2.71,0,5.11-1.87,5.62-4.59,1.68.78,4.72,0,4.85,2.59v26.31c0,1.1.91,1.94,2,1.87,1.03,0,1.87-.84,1.87-1.87v-26.31c-.06-3.36-2.91-6.08-6.27-6.01-1.23.06-2.33-.84-2.39-2.13v-29.22c.19-3.62,3.23-6.4,6.79-6.27h16.42c3.62-.13,6.66,2.65,6.79,6.27v29.22c-.06,1.23-1.16,2.2-2.39,2.13-3.36-.06-6.21,2.59-6.27,6.01v26.31c0,1.1.91,1.94,2,1.94,1.03,0,1.87-.84,1.94-1.94v-26.31c.13-2.65,3.1-1.81,4.85-2.59.39,2.78,2.84,4.78,5.62,4.78.91,0,1.75.65,1.81,1.55v22.75c0,1.1.91,1.94,2,1.94,1.03,0,1.87-.84,1.94-1.94v-22.75c-.06-3.1-2.59-5.49-5.69-5.43h-.13Z"/>
    <path class="st1" d="M100.09,45.21h-14.22c-1.1,0-1.94.9-1.94,2,0,1.03.84,1.87,1.94,1.94h14.22c2.97-.13,5.49,2.2,5.62,5.17v25.28c-.06.9-.84,1.62-1.81,1.55-3.1,0-5.62,2.39-5.69,5.43v22.75c0,1.1.91,1.94,2,1.94,1.03,0,1.87-.84,1.94-1.94v-22.75c.06-.9.84-1.62,1.81-1.55,3.04,0,5.62-2.39,5.69-5.43v-25.28c-.13-5.11-4.4-9.18-9.5-9.05l-.06-.06Z"/>
    <path class="st1" d="M61.3,29.57c17.97-.65,17.97-26.57,0-27.15-17.97.65-17.97,26.57,0,27.15ZM71.06,15.99c-.39,12.8-19,12.8-19.39,0,.39-12.8,19-12.8,19.39,0Z"/>
    <path class="st1" d="M92.98,39.46c14.09-.45,14.09-20.88,0-21.33-14.09.45-14.09,20.88,0,21.33ZM92.98,22c3.75,0,6.79,3.1,6.72,6.85,0,3.68-3.04,6.66-6.72,6.72-3.75,0-6.79-3.1-6.72-6.85,0-3.68,3.04-6.66,6.72-6.72Z"/>
    <path class="st1" d="M40.36,28.79c-.45-14.09-20.88-14.09-21.33,0,.45,14.09,20.88,14.09,21.33,0ZM36.48,28.79c0,3.75-3.1,6.79-6.85,6.72-3.68,0-6.66-3.04-6.72-6.72,0-3.75,3.1-6.79,6.85-6.72,3.68,0,6.66,3.04,6.72,6.72Z"/>
  </g>
  <g class="st2">
    <g>
      <path class="st1" d="M62.96,96.68c-22.07,0-40.04-17.97-40.04-40.04S40.89,16.6,62.96,16.6s40.04,17.97,40.04,40.04-17.97,40.04-40.04,40.04ZM62.96,19.31c-20.57,0-37.32,16.76-37.32,37.32s16.76,37.32,37.32,37.32,37.32-16.76,37.32-37.32-16.76-37.32-37.32-37.32Z"/>
      <path class="st1" d="M62.96,38.44c-10.98,0-21.55-1.68-30.56-4.8-.69-.23-1.04-.98-.81-1.68.17-.52.69-.87,1.27-.87s.29,0,.46.06c8.72,3,19.01,4.62,29.64,4.62s20.92-1.62,29.64-4.62c.12,0,.29-.06.46-.06.58,0,1.1.35,1.27.87.23.69-.12,1.44-.81,1.68-9.01,3.12-19.59,4.74-30.56,4.74v.06Z"/>
      <path class="st1" d="M93.06,82.29c-.17,0-.29,0-.46-.06-8.72-3-19.01-4.62-29.64-4.62s-20.92,1.62-29.64,4.62c-.12,0-.29.06-.46.06-.58,0-1.1-.35-1.27-.92-.12-.35-.12-.69.06-1.04.17-.35.4-.58.75-.69,9.01-3.12,19.59-4.8,30.56-4.8s21.55,1.68,30.56,4.8c.69.23,1.04.98.81,1.68-.17.52-.69.92-1.27.92v.06Z"/>
      <path class="st1" d="M62.96,96.68c-11.79,0-21.03-17.56-21.03-40.04s9.24-40.04,21.03-40.04,21.03,17.56,21.03,40.04-9.24,40.04-21.03,40.04ZM62.96,19.31c-9.94,0-18.37,17.1-18.37,37.32s8.38,37.32,18.37,37.32,18.37-17.1,18.37-37.32-8.38-37.32-18.37-37.32Z"/>
      <path class="st1" d="M62.96,96.68c-.75,0-1.33-.58-1.33-1.33V17.98c0-.75.58-1.33,1.33-1.33s1.33.58,1.33,1.33v77.37c0,.75-.58,1.33-1.33,1.33h0Z"/>
      <path class="st1" d="M24.25,58.02c-.75,0-1.33-.58-1.33-1.33s.58-1.33,1.33-1.33h77.37c.75,0,1.33.58,1.33,1.33s-.58,1.33-1.33,1.33H24.25Z"/>
    </g>
    <path class="st1" d="M105.2,91.25c-.29,0-.58-.12-.81-.29-.29-.23-.46-.52-.52-.87,0-.35,0-.69.29-.98,16.12-20.68,14.27-50.32-4.33-68.87-9.88-9.88-23-15.25-36.92-15.25s-22.82,3.81-32.07,11.04c-.23.17-.52.29-.81.29s-.81-.17-1.04-.52c-.46-.58-.35-1.44.23-1.85C38.81,6.43,50.77,2.33,62.96,2.33s28.48,5.72,38.83,16.06c19.53,19.53,21.49,50.67,4.51,72.4-.23.35-.64.52-1.04.52l-.06-.06Z"/>
    <g>
      <path class="st1" d="M91.45,100.78c.69-.46,1.44-.98,2.14-1.44l1.56,2.14c-.75.52-1.5,1.04-2.25,1.56l-1.44-2.25h0Z"/>
      <path class="st1" d="M61.57,111.87c-1.96,0-3.93-.23-5.84-.46l.35-2.66c1.85.23,3.7.4,5.49.4v2.72ZM68.39,108.98c1.79-.17,3.64-.46,5.43-.87l.58,2.6c-1.91.4-3.81.69-5.78.92l-.29-2.66h.06ZM48.81,110.08c-1.91-.52-3.76-1.1-5.55-1.79l.98-2.48c1.73.64,3.47,1.21,5.26,1.73l-.69,2.6v-.06ZM80.41,106.27c1.73-.64,3.47-1.33,5.08-2.14l1.16,2.43c-1.73.87-3.58,1.62-5.37,2.25l-.87-2.54ZM36.79,105.29c-1.73-.92-3.41-1.96-4.97-3.06l1.5-2.2c1.5,1.04,3.12,2.02,4.68,2.89l-1.27,2.37h.06ZM26.21,97.83c-.69-.64-1.39-1.27-2.08-1.96s-1.39-1.44-2.08-2.2l2.02-1.79c.64.69,1.27,1.39,1.96,2.08.64.64,1.27,1.27,1.96,1.85l-1.79,1.96v.06ZM17.72,88.13c-1.1-1.62-2.14-3.29-3.06-4.97l2.37-1.27c.87,1.62,1.85,3.18,2.89,4.74l-2.2,1.5h0ZM11.71,76.69c-.69-1.85-1.27-3.7-1.79-5.55l2.6-.64c.46,1.79,1.04,3.52,1.68,5.26l-2.48.98v-.06ZM8.59,64.15c-.23-1.91-.4-3.87-.46-5.84h2.66c0,1.79.17,3.64.4,5.49l-2.66.35h.06ZM8.42,51.21c.23-1.96.52-3.87.92-5.78l2.6.58c-.4,1.79-.69,3.64-.87,5.43l-2.66-.29v.06ZM11.31,38.61c.64-1.85,1.39-3.64,2.25-5.37l2.37,1.16c-.81,1.62-1.5,3.35-2.14,5.08l-2.54-.87h.06Z"/>
      <path class="st1" d="M17.09,27c.52-.75,1.04-1.5,1.56-2.25l2.14,1.62c-.52.69-.98,1.39-1.5,2.14l-2.25-1.44.06-.06Z"/>
    </g>
    <path class="st1" d="M24.65,28.15c-2.2,0-4.28-.87-5.84-2.43-3.24-3.24-3.24-8.49,0-11.73,1.56-1.56,3.64-2.43,5.84-2.43s4.28.87,5.84,2.43c3.24,3.24,3.24,8.49,0,11.73-1.56,1.56-3.64,2.43-5.84,2.43ZM24.65,14.29c-1.5,0-2.89.58-3.99,1.62-2.2,2.2-2.2,5.78,0,7.97,1.04,1.04,2.48,1.62,3.99,1.62s2.89-.58,3.99-1.62c2.2-2.2,2.2-5.78,0-7.97-1.04-1.04-2.48-1.62-3.99-1.62ZM29.57,25.15h0v-.64.64Z"/>
    <path class="st1" d="M100.06,103.61c-2.2,0-4.28-.87-5.84-2.43-3.24-3.24-3.24-8.49,0-11.73,1.56-1.56,3.64-2.43,5.84-2.43s4.28.87,5.84,2.43c3.24,3.24,3.24,8.49,0,11.73-1.56,1.56-3.64,2.43-5.84,2.43ZM100.06,89.69c-1.5,0-2.89.58-3.99,1.62-1.04,1.04-1.62,2.48-1.62,3.99s.58,2.89,1.62,3.99c1.04,1.04,2.48,1.62,3.99,1.62h0c1.5,0,2.89-.58,3.99-1.62,2.2-2.2,2.2-5.78,0-7.97-1.04-1.04-2.48-1.62-3.99-1.62ZM104.97,100.55h0v-.64.64Z"/>
  </g>
  <g class="st2">
    <g>
      <path class="st1" d="M113.86,35.9h-8.44c-.58,0-1.03.45-1.03,1.03s.45,1.03,1.03,1.03h8.44c2.06,0,3.93.97,5.09,2.64,1.16,1.68,1.48,3.74.77,5.67l-16.63,47.18c-.45,1.22-1.61,2.06-2.9,2.06h-.97V19.72c0-4.96-4.06-9.02-9.02-9.02H12.02c-4.96,0-9.02,4.06-9.02,9.02v68.71c0,4.96,4.06,9.02,9.02,9.02h88.24c2.13,0,4.06-1.35,4.77-3.35l16.63-47.18c.9-2.58.52-5.29-1.03-7.48-1.55-2.19-4-3.48-6.7-3.48l-.06-.06ZM4.99,88.44V19.72c0-3.87,3.16-7.03,7.03-7.03h78.19c3.87,0,7.03,3.16,7.03,7.03v75.8H11.95c-3.87,0-7.03-3.16-7.03-7.03l.06-.06Z"/>
      <path class="st1" d="M100.26,97.46H12.02c-5.03,0-9.09-4.06-9.09-9.09V19.66c0-5.03,4.06-9.09,9.09-9.09h78.19c5.03,0,9.09,4.06,9.09,9.09v75.8h.97c1.29,0,2.45-.84,2.84-2l16.63-47.18c.71-1.93.39-4-.77-5.67s-3.03-2.64-5.09-2.64h-8.44c-.58,0-1.03-.45-1.03-1.03s.45-1.03,1.03-1.03h8.44c2.71,0,5.16,1.29,6.77,3.48,1.55,2.19,1.93,4.96,1.03,7.54l-16.63,47.18c-.71,2-2.64,3.42-4.77,3.42v-.06ZM12.08,10.64c-4.96,0-9.02,4.06-9.02,9.02v68.71c0,4.96,4.06,9.02,9.02,9.02h88.24c2.13,0,4.06-1.35,4.77-3.35l16.63-47.18c.9-2.58.52-5.29-1.03-7.48-1.55-2.19-4-3.48-6.7-3.48h-8.44c-.52,0-.97.45-.97.97s.45.97.97.97h8.44c2.06,0,3.93.97,5.09,2.64,1.16,1.68,1.48,3.74.77,5.67l-16.63,47.18c-.45,1.22-1.61,2.06-2.9,2.06h-.97V19.6c0-4.96-4.06-9.02-9.02-9.02H12.15l-.06.06ZM97.29,95.46H12.02c-3.87,0-7.09-3.16-7.09-7.09V19.66c0-3.87,3.16-7.09,7.09-7.09h78.19c3.87,0,7.09,3.16,7.09,7.09v75.8h0ZM12.08,12.63c-3.87,0-7.03,3.16-7.03,7.03v68.71c0,3.87,3.16,7.03,7.03,7.03h85.21V19.6c0-3.87-3.16-7.03-7.03-7.03H12.08v.06Z"/>
    </g>
    <g>
      <path class="st1" d="M14.47,56.34h30.68c.58,0,1.03-.45,1.03-1.03v-30.68c0-.58-.45-1.03-1.03-1.03H14.47c-.58,0-1.03.45-1.03,1.03v30.68c0,.58.45,1.03,1.03,1.03ZM15.5,25.65h28.68v28.68H15.5v-28.68Z"/>
      <path class="st1" d="M45.15,56.34H14.47c-.58,0-1.03-.45-1.03-1.03v-30.68c0-.58.45-1.03,1.03-1.03h30.68c.58,0,1.03.45,1.03,1.03v30.68c0,.58-.45,1.03-1.03,1.03ZM14.47,23.66c-.52,0-.97.45-.97.97v30.68c0,.52.45.97.97.97h30.68c.52,0,.97-.45.97-.97v-30.68c0-.52-.45-.97-.97-.97H14.47ZM44.18,54.34H15.5v-28.68h28.68v28.68ZM15.5,54.34h28.62v-28.62H15.5v28.62Z"/>
    </g>
    <g>
      <path class="st1" d="M88.85,23.66h-33.45c-.58,0-1.03.45-1.03,1.03s.45,1.03,1.03,1.03h33.45c.58,0,1.03-.45,1.03-1.03s-.45-1.03-1.03-1.03Z"/>
      <path class="st1" d="M88.85,25.65h-33.45c-.58,0-1.03-.45-1.03-1.03s.45-1.03,1.03-1.03h33.45c.58,0,1.03.45,1.03,1.03s-.45,1.03-1.03,1.03ZM55.4,23.66c-.52,0-.97.45-.97.97s.45.97.97.97h33.45c.52,0,.97-.45.97-.97s-.45-.97-.97-.97h-33.45Z"/>
    </g>
    <g>
      <path class="st1" d="M88.85,33.84h-33.45c-.58,0-1.03.45-1.03,1.03s.45,1.03,1.03,1.03h33.45c.58,0,1.03-.45,1.03-1.03s-.45-1.03-1.03-1.03Z"/>
      <path class="st1" d="M88.85,35.84h-33.45c-.58,0-1.03-.45-1.03-1.03s.45-1.03,1.03-1.03h33.45c.58,0,1.03.45,1.03,1.03s-.45,1.03-1.03,1.03ZM55.4,33.84c-.52,0-.97.45-.97.97s.45.97.97.97h33.45c.52,0,.97-.45.97-.97s-.45-.97-.97-.97h-33.45Z"/>
    </g>
    <g>
      <path class="st1" d="M88.85,44.02h-33.45c-.58,0-1.03.45-1.03,1.03s.45,1.03,1.03,1.03h33.45c.58,0,1.03-.45,1.03-1.03s-.45-1.03-1.03-1.03Z"/>
      <path class="st1" d="M88.85,46.02h-33.45c-.58,0-1.03-.45-1.03-1.03s.45-1.03,1.03-1.03h33.45c.58,0,1.03.45,1.03,1.03s-.45,1.03-1.03,1.03ZM55.4,44.02c-.52,0-.97.45-.97.97s.45.97.97.97h33.45c.52,0,.97-.45.97-.97s-.45-.97-.97-.97h-33.45Z"/>
    </g>
    <g>
      <path class="st1" d="M88.85,54.21h-33.45c-.58,0-1.03.45-1.03,1.03s.45,1.03,1.03,1.03h33.45c.58,0,1.03-.45,1.03-1.03s-.45-1.03-1.03-1.03Z"/>
      <path class="st1" d="M88.85,56.21h-33.45c-.58,0-1.03-.45-1.03-1.03s.45-1.03,1.03-1.03h33.45c.58,0,1.03.45,1.03,1.03s-.45,1.03-1.03,1.03ZM55.4,54.21c-.52,0-.97.45-.97.97s.45.97.97.97h33.45c.52,0,.97-.45.97-.97s-.45-.97-.97-.97h-33.45Z"/>
    </g>
    <g>
      <path class="st1" d="M88.85,64.39h-42.67c-.58,0-1.03.45-1.03,1.03s.45,1.03,1.03,1.03h42.67c.58,0,1.03-.45,1.03-1.03s-.45-1.03-1.03-1.03Z"/>
      <path class="st1" d="M88.85,66.39h-42.67c-.58,0-1.03-.45-1.03-1.03s.45-1.03,1.03-1.03h42.67c.58,0,1.03.45,1.03,1.03s-.45,1.03-1.03,1.03ZM46.18,64.39c-.52,0-.97.45-.97.97s.45.97.97.97h42.67c.52,0,.97-.45.97-.97s-.45-.97-.97-.97h-42.67Z"/>
    </g>
    <g>
      <path class="st1" d="M14.47,66.39h25.98c.58,0,1.03-.45,1.03-1.03s-.45-1.03-1.03-1.03H14.47c-.58,0-1.03.45-1.03,1.03s.45,1.03,1.03,1.03Z"/>
      <path class="st1" d="M40.44,66.39H14.47c-.58,0-1.03-.45-1.03-1.03s.45-1.03,1.03-1.03h25.98c.58,0,1.03.45,1.03,1.03s-.45,1.03-1.03,1.03ZM14.47,64.39c-.52,0-.97.45-.97.97s.45.97.97.97h25.98c.52,0,.97-.45.97-.97s-.45-.97-.97-.97H14.47Z"/>
    </g>
    <g>
      <path class="st1" d="M14.47,76.58h55.95c.58,0,1.03-.45,1.03-1.03s-.45-1.03-1.03-1.03H14.47c-.58,0-1.03.45-1.03,1.03s.45,1.03,1.03,1.03Z"/>
      <path class="st1" d="M70.42,76.58H14.47c-.58,0-1.03-.45-1.03-1.03s.45-1.03,1.03-1.03h55.95c.58,0,1.03.45,1.03,1.03s-.45,1.03-1.03,1.03ZM14.47,74.58c-.52,0-.97.45-.97.97s.45.97.97.97h55.95c.52,0,.97-.45.97-.97s-.45-.97-.97-.97H14.47Z"/>
    </g>
    <g>
      <path class="st1" d="M88.85,74.58h-12.12c-.58,0-1.03.45-1.03,1.03s.45,1.03,1.03,1.03h12.12c.58,0,1.03-.45,1.03-1.03s-.45-1.03-1.03-1.03Z"/>
      <path class="st1" d="M88.85,76.58h-12.12c-.58,0-1.03-.45-1.03-1.03s.45-1.03,1.03-1.03h12.12c.58,0,1.03.45,1.03,1.03s-.45,1.03-1.03,1.03ZM76.73,74.58c-.52,0-.97.45-.97.97s.45.97.97.97h12.12c.52,0,.97-.45.97-.97s-.45-.97-.97-.97h-12.12Z"/>
    </g>
    <g>
      <path class="st1" d="M88.85,84.76h-54.34c-.58,0-1.03.45-1.03,1.03s.45,1.03,1.03,1.03h54.34c.58,0,1.03-.45,1.03-1.03s-.45-1.03-1.03-1.03Z"/>
      <path class="st1" d="M88.85,86.76h-54.34c-.58,0-1.03-.45-1.03-1.03s.45-1.03,1.03-1.03h54.34c.58,0,1.03.45,1.03,1.03s-.45,1.03-1.03,1.03ZM34.51,84.76c-.52,0-.97.45-.97.97s.45.97.97.97h54.34c.52,0,.97-.45.97-.97s-.45-.97-.97-.97h-54.34Z"/>
    </g>
    <g>
      <path class="st1" d="M27.49,84.76h-13.02c-.58,0-1.03.45-1.03,1.03s.45,1.03,1.03,1.03h13.02c.58,0,1.03-.45,1.03-1.03s-.45-1.03-1.03-1.03Z"/>
      <path class="st1" d="M27.49,86.76h-13.02c-.58,0-1.03-.45-1.03-1.03s.45-1.03,1.03-1.03h13.02c.58,0,1.03.45,1.03,1.03s-.45,1.03-1.03,1.03ZM14.47,84.76c-.52,0-.97.45-.97.97s.45.97.97.97h13.02c.52,0,.97-.45.97-.97s-.45-.97-.97-.97h-13.02Z"/>
    </g>
  </g>
  <g class="st2">
    <path class="st1" d="M61.2,67.22c-8.84,0-16.11-7.21-16.11-16.11s7.21-16.11,16.11-16.11,8.32,1.69,11.37,4.74c.52.52.52,1.36,0,1.82-.52.52-1.36.52-1.82,0-2.53-2.53-5.91-3.96-9.55-3.96-7.41,0-13.45,6.04-13.45,13.45s6.04,13.45,13.45,13.45,13.45-6.04,13.45-13.45-.32-3.57-1.04-5.26c-.26-.65,0-1.43.71-1.69.65-.26,1.43,0,1.69.71.84,2.01,1.23,4.09,1.23,6.24,0,8.84-7.21,16.11-16.11,16.11l.06.06Z"/>
    <path class="st1" d="M61.2,81.96c-17.02,0-30.86-13.84-30.86-30.86s13.84-30.86,30.86-30.86,15.98,3.18,21.83,9.03c.52.52.52,1.36,0,1.82-.52.52-1.36.52-1.82,0-5.33-5.33-12.41-8.25-19.94-8.25-15.59,0-28.26,12.67-28.26,28.26s12.67,28.26,28.26,28.26,28.26-12.67,28.26-28.26-1.69-11.17-4.87-15.85c-.39-.58-.26-1.43.32-1.82s1.43-.26,1.82.32c3.44,5.13,5.33,11.11,5.33,17.28,0,17.02-13.84,30.86-30.86,30.86l-.06.06Z"/>
    <g>
      <path class="st1" d="M80.88,85.8c-.45,0-.91-.26-1.1-.65-.39-.65-.13-1.43.45-1.75,6.63-3.9,11.82-9.68,15.01-16.63.32-.65,1.1-.91,1.75-.65.65.32.91,1.1.65,1.75-3.44,7.47-8.97,13.58-16.05,17.8-.19.13-.45.19-.65.19l-.06-.06Z"/>
      <path class="st1" d="M72.96,89.37c-.58,0-1.04-.32-1.23-.91-.19-.71.13-1.43.84-1.62.78-.26,1.56-.52,2.34-.84.65-.26,1.43,0,1.69.71.26.65,0,1.43-.71,1.69-.84.32-1.69.65-2.47.91h-.39l-.06.06Z"/>
    </g>
    <path class="st1" d="M32.49,26.42c-.32,0-.65-.13-.84-.32-.52-.45-.58-1.3-.06-1.82,4.22-4.68,9.55-8.32,15.4-10.52.65-.26,1.43.06,1.69.78.26.65-.06,1.43-.78,1.69-5.46,2.08-10.46,5.52-14.42,9.87-.26.26-.58.45-.97.45v-.13Z"/>
    <path class="st1" d="M61.2,96.77c-25.14,0-45.61-20.46-45.61-45.61S36.06,5.56,61.2,5.56s21.18,3.83,29.36,10.72c.52.45.65,1.3.13,1.82-.45.52-1.3.65-1.82.13-7.73-6.5-17.61-10.13-27.74-10.13-23.71,0-43.01,19.29-43.01,43.01s19.29,43.01,43.01,43.01,43.01-19.29,43.01-43.01-2.34-16.37-6.82-23.32c-.39-.58-.19-1.43.39-1.82.58-.39,1.43-.19,1.82.39,4.74,7.34,7.28,15.92,7.28,24.69,0,25.14-20.46,45.61-45.61,45.61v.13Z"/>
    <g>
      <path class="st1" d="M61.2,52.47c-.32,0-.65-.13-.91-.39-.52-.52-.52-1.36,0-1.82l25.79-25.79c.52-.52,1.36-.52,1.82,0,.52.52.52,1.36,0,1.82l-25.79,25.79c-.26.26-.58.39-.91.39h0Z"/>
      <path class="st1" d="M86.99,26.61c-.32,0-.65-.13-.91-.39s-.39-.65-.39-.97l.39-5.72c0-.32.13-.58.39-.84l7.28-7.28c.52-.52,1.36-.52,1.82,0l5.33,5.33c.52.52.52,1.36,0,1.82l-7.28,7.28c-.19.19-.52.39-.84.39l-5.72.39h-.06ZM88.61,20.18l-.26,3.77,3.77-.26,5.98-5.98-3.51-3.51-5.98,5.98h0Z"/>
    </g>
    <path class="st1" d="M29.56,107.49h-8.12c-.39,0-.84-.19-1.04-.52-.26-.32-.32-.78-.19-1.17l8.12-24.04c.26-.71.97-1.04,1.62-.84.71.26,1.04.97.84,1.62l-7.54,22.28h5.78l9.81-9.61c.52-.52,1.36-.52,1.82,0,.52.52.52,1.36,0,1.82l-10.2,9.94c-.26.26-.58.39-.91.39v.13Z"/>
    <path class="st1" d="M100.96,107.49h-8.12c-.32,0-.65-.13-.91-.39l-10.2-9.94c-.52-.52-.52-1.3,0-1.82s1.3-.52,1.82,0l9.81,9.61h5.78l-7.54-22.28c-.26-.71.13-1.43.84-1.62.71-.26,1.43.13,1.62.84l8.12,24.04c.13.39.06.84-.19,1.17-.26.32-.65.52-1.04.52v-.13Z"/>
    <g>
      <path class="st1" d="M105.51,107.49h-30.73c-.71,0-1.3-.58-1.3-1.3s.58-1.3,1.3-1.3h30.73c.71,0,1.3.58,1.3,1.3s-.58,1.3-1.3,1.3Z"/>
      <path class="st1" d="M66.79,107.49H16.83c-.71,0-1.3-.58-1.3-1.3s.58-1.3,1.3-1.3h49.96c.71,0,1.3.58,1.3,1.3s-.58,1.3-1.3,1.3Z"/>
    </g>
  </g>
  <g class="st3">
    <g>
      <path class="st1" d="M61.49,15.79c-.71,0-1.29-.58-1.29-1.29V5.62c0-.71.58-1.29,1.29-1.29s1.29.58,1.29,1.29v8.88c0,.71-.58,1.29-1.29,1.29Z"/>
      <path class="st1" d="M46.82,18.36c-.51,0-1.03-.32-1.16-.84l-3.03-8.37c-.26-.64.13-1.35.77-1.61s1.35.13,1.61.77l3.03,8.37c.26.64-.13,1.35-.77,1.61-.13,0-.26.06-.45.06Z"/>
      <path class="st1" d="M33.88,25.83c-.39,0-.71-.13-.97-.45l-5.73-6.82c-.45-.51-.39-1.35.13-1.8.51-.45,1.35-.39,1.8.13l5.73,6.82c.45.51.39,1.35-.13,1.8-.26.19-.51.32-.84.32Z"/>
      <path class="st1" d="M76.17,18.36c-.13,0-.26,0-.45-.06-.64-.26-.97-.97-.77-1.61l3.03-8.37c.26-.64.97-.97,1.61-.77.64.26.97.97.77,1.61l-3.03,8.37c-.19.51-.64.84-1.16.84Z"/>
      <path class="st1" d="M89.11,25.83c-.26,0-.58-.13-.84-.32-.51-.45-.58-1.22-.13-1.8l5.73-6.82c.45-.51,1.22-.58,1.8-.13.51.45.58,1.22.13,1.8l-5.73,6.82c-.26.32-.58.45-.97.45Z"/>
    </g>
    <g>
      <path class="st1" d="M61.49,110.67c-.71,0-1.29-.58-1.29-1.29v-8.88c0-.71.58-1.29,1.29-1.29s1.29.58,1.29,1.29v8.88c0,.71-.58,1.29-1.29,1.29Z"/>
      <path class="st1" d="M43.73,107.52c-.13,0-.26,0-.45-.06-.64-.26-.97-.97-.77-1.61l3.03-8.37c.26-.64.97-.97,1.61-.77.64.26.97.97.77,1.61l-3.03,8.37c-.19.51-.64.84-1.16.84Z"/>
      <path class="st1" d="M28.15,98.51c-.26,0-.58-.13-.84-.32-.51-.45-.58-1.22-.13-1.8l5.73-6.82c.45-.51,1.22-.58,1.8-.13.51.45.58,1.22.13,1.8l-5.73,6.82c-.26.32-.58.45-.97.45Z"/>
      <path class="st1" d="M79.26,107.52c-.51,0-1.03-.32-1.16-.84l-3.03-8.37c-.26-.64.13-1.35.77-1.61s1.35.13,1.61.77l3.03,8.37c.26.64-.13,1.35-.77,1.61-.13,0-.26.06-.45.06Z"/>
      <path class="st1" d="M94.84,98.51c-.39,0-.71-.13-.97-.45l-5.73-6.82c-.45-.51-.39-1.35.13-1.8s1.35-.39,1.8.13l5.73,6.82c.45.51.39,1.35-.13,1.8-.26.19-.51.32-.84.32Z"/>
    </g>
    <g>
      <path class="st1" d="M61.49,87.89c-16.61,0-31.48-8.05-41.07-14.81-10.3-7.27-16.67-14.42-16.93-14.74-.45-.45-.45-1.16,0-1.67.26-.32,6.63-7.47,16.93-14.74,9.59-6.76,24.46-14.81,41.07-14.81s31.48,8.05,41.07,14.81c10.3,7.27,16.67,14.42,16.93,14.74.45.45.45,1.22,0,1.67-.26.32-6.63,7.47-16.93,14.74-9.59,6.76-24.46,14.81-41.07,14.81ZM6.13,57.5c2,2.12,7.66,7.85,15.77,13.58,9.27,6.5,23.62,14.29,39.59,14.29,27.62,0,50.85-23.11,55.36-27.81-2-2.12-7.66-7.85-15.77-13.58-9.27-6.5-23.62-14.29-39.59-14.29s-30.32,7.79-39.59,14.29c-8.11,5.66-13.78,11.46-15.77,13.58v-.06Z"/>
      <g>
        <path class="st1" d="M94.84,71.47c-.39,0-.84-.19-1.09-.58-.39-.58-.19-1.35.39-1.74.51-.32.97-.64,1.48-.97.58-.39,1.35-.26,1.74.39.39.58.26,1.35-.39,1.74-.51.32-1.03.64-1.48.97-.19.13-.45.19-.71.19h.06Z"/>
        <path class="st1" d="M100.76,67.41c-.39,0-.77-.19-1.03-.51-.39-.58-.32-1.35.26-1.74,2.83-2.06,5.54-4.31,8.18-6.69.51-.45,1.29-.45,1.8.06.45.51.45,1.29-.06,1.8-2.64,2.45-5.47,4.76-8.37,6.89-.26.19-.51.26-.77.26v-.06Z"/>
      </g>
      <path class="st1" d="M15.79,55.31c-.32,0-.71-.13-.97-.45-.45-.51-.39-1.35.13-1.8,3.6-3.09,7.34-5.99,11.14-8.5.58-.39,1.35-.19,1.74.39.39.58.19,1.35-.39,1.74-3.73,2.45-7.34,5.21-10.88,8.24-.26.19-.51.32-.84.32l.06.06Z"/>
    </g>
    <g>
      <path class="st1" d="M61.49,87.89c-16.74,0-30.38-13.65-30.38-30.38s13.65-30.38,30.38-30.38,19.05,4.76,24.72,12.75c.39.58.26,1.35-.32,1.74-.58.39-1.35.26-1.74-.32-5.21-7.34-13.71-11.65-22.66-11.65-15.32,0-27.81,12.49-27.81,27.81s12.49,27.81,27.81,27.81,27.81-12.49,27.81-27.81-.71-7.34-2.12-10.75c-.26-.64,0-1.42.71-1.67.64-.26,1.42,0,1.67.71,1.54,3.73,2.32,7.66,2.32,11.72,0,16.74-13.65,30.38-30.38,30.38v.06Z"/>
      <path class="st1" d="M61.49,70.83c-7.34,0-13.33-5.99-13.33-13.33s5.99-13.39,13.33-13.39,13.33,5.99,13.33,13.39-5.99,13.33-13.33,13.33ZM61.49,46.69c-5.99,0-10.81,4.83-10.81,10.81s4.83,10.81,10.81,10.81,10.81-4.83,10.81-10.81-4.83-10.81-10.81-10.81Z"/>
      <path class="st1" d="M55.12,56.79h-.39c-.64-.19-1.03-.9-.84-1.61.84-2.64,2.96-4.7,5.66-5.34.71-.19,1.35.26,1.54.9.19.71-.26,1.35-.9,1.54-1.8.45-3.28,1.87-3.86,3.67-.19.51-.64.9-1.22.9v-.06Z"/>
      <g>
        <path class="st1" d="M61.49,46.69c-.71,0-1.29-.58-1.29-1.29v-5.79c0-.71.58-1.29,1.29-1.29s1.29.58,1.29,1.29v5.79c0,.71-.58,1.29-1.29,1.29Z"/>
        <path class="st1" d="M46.04,67.67c-.45,0-.84-.26-1.09-.64-.32-.58-.13-1.35.45-1.74l4.96-2.9c.58-.32,1.35-.13,1.74.45.32.58.13,1.35-.45,1.74l-4.96,2.9c-.19.13-.39.19-.64.19Z"/>
        <path class="st1" d="M51,52.74c-.19,0-.45,0-.64-.19l-4.96-2.9c-.58-.32-.84-1.09-.45-1.74.32-.58,1.09-.84,1.74-.45l4.96,2.9c.58.32.84,1.09.45,1.74-.26.39-.64.64-1.09.64Z"/>
        <path class="st1" d="M76.94,67.67c-.19,0-.45,0-.64-.19l-4.96-2.9c-.58-.32-.84-1.09-.45-1.74.32-.58,1.09-.84,1.74-.45l4.96,2.9c.58.32.84,1.09.45,1.74-.26.39-.64.64-1.09.64Z"/>
        <path class="st1" d="M71.99,52.74c-.45,0-.84-.26-1.09-.64-.32-.58-.13-1.35.45-1.74l4.96-2.9c.58-.32,1.35-.13,1.74.45.32.58.13,1.35-.45,1.74l-4.96,2.9c-.19.13-.39.19-.64.19Z"/>
        <path class="st1" d="M61.49,76.62c-.71,0-1.29-.58-1.29-1.29v-5.79c0-.71.58-1.29,1.29-1.29s1.29.58,1.29,1.29v5.79c0,.71-.58,1.29-1.29,1.29Z"/>
        <path class="st1" d="M49.39,58.79h-16.99c-.71,0-1.29-.58-1.29-1.29s.58-1.29,1.29-1.29h16.99c.71,0,1.29.58,1.29,1.29s-.58,1.29-1.29,1.29Z"/>
        <path class="st1" d="M46.94,83.96c-.19,0-.45,0-.64-.19-.58-.32-.84-1.09-.45-1.74l8.5-14.74c.32-.58,1.09-.84,1.74-.45.58.32.84,1.09.45,1.74l-8.5,14.74c-.26.39-.64.64-1.09.64Z"/>
        <path class="st1" d="M55.44,48.3c-.45,0-.84-.26-1.09-.64l-8.5-14.74c-.32-.58-.13-1.35.45-1.74.58-.32,1.35-.13,1.74.45l8.5,14.74c.32.58.13,1.35-.45,1.74-.19.13-.39.19-.64.19Z"/>
        <path class="st1" d="M76.04,83.96c-.45,0-.84-.26-1.09-.64l-8.5-14.74c-.32-.58-.13-1.35.45-1.74.58-.32,1.35-.13,1.74.45l8.5,14.74c.32.58.13,1.35-.45,1.74-.19.13-.39.19-.64.19Z"/>
        <path class="st1" d="M67.54,48.3c-.19,0-.45,0-.64-.19-.58-.32-.84-1.09-.45-1.74l8.5-14.74c.32-.58,1.09-.84,1.74-.45.58.32.84,1.09.45,1.74l-8.5,14.74c-.26.39-.64.64-1.09.64Z"/>
        <path class="st1" d="M90.59,58.79h-16.99c-.71,0-1.29-.58-1.29-1.29s.58-1.29,1.29-1.29h16.99c.71,0,1.29.58,1.29,1.29s-.58,1.29-1.29,1.29Z"/>
      </g>
    </g>
  </g>
</svg>