<?xml version="1.0" encoding="UTF-8"?>
<svg id="Layer_1" xmlns="http://www.w3.org/2000/svg" version="1.1" viewBox="0 0 124.31 113.65">
  <!-- Generator: Adobe Illustrator 29.6.0, SVG Export Plug-In . SVG Version: 2.1.1 Build 207)  -->
  <defs>
    <style>
      .st0 {
        fill: #fff;
      }
    </style>
  </defs>
  <path class="st0" d="M30.29,49.82c1.2,2.7,2.9,5.5,5.1,8.2,2.2,2.8,5,5.7,8.1,8.6,2.9,2.7,6.1,5.7,9.5,8.8l5.1-5.1c-3-2.7-5.8-5.2-8.3-7.5-2.9-2.7-5.4-5.2-7.4-7.6-2.1-2.4-3.7-4.7-4.8-6.9-1.2-2.3-1.8-4.6-1.8-6.8,0-3.1,1-5.7,3.1-7.8s4.7-3.1,7.8-3.1,5.8,1,7.7,2.9c1.6,1.6,3.8,4,6.6,7.3h3.3c2.7-3.1,4.8-5.5,6.4-7.1,1.9-2,4.6-3.1,8-3.1s4.8.8,6.6,2.2c1.5,1.2,2.6,2.7,3.3,4.4,1.3-.1,2.8-.2,4.3-.2s2.3,0,3.3.1c-.9-3.6-2.7-6.7-5.5-9.3-3.3-3-7.2-4.5-12-4.5h-4l.8-2.1c.3-.8.5-1.5.7-2.2.1-.7.2-1.5.2-2.3,0-3.9-1.3-7.1-4-9.8s-5.9-4-9.8-4-7.1,1.3-9.8,4c-2.7,2.7-4,5.9-4,9.8s0,1.6.2,2.4c.2.8.4,1.5.7,2.3l.8,2.1h-3.9c-5.2,0-9.4,1.7-12.9,5.2s-5.2,7.7-5.2,12.9.6,5.6,1.7,8.3l.1-.1ZM58.09,12.22c1.3-1.3,2.8-1.9,4.7-1.9s3.4.6,4.7,1.9c1.3,1.3,1.9,2.8,1.9,4.7s-.6,3.4-1.9,4.7-2.8,1.9-4.7,1.9-3.4-.6-4.7-1.9c-1.3-1.3-1.9-2.8-1.9-4.7s.6-3.4,1.9-4.7Z"/>
  <path class="st0" d="M79.19,112.22c3.7,0,7-.9,9.8-2.8,2.9-1.9,5.1-4.5,6.7-7.8l1.1-2.2,1.5,2c1.2,1.6,2.8,2.8,4.6,3.7,1.9.9,3.8,1.3,5.8,1.3,3.9,0,7.2-1.3,9.8-4,2.7-2.7,4-5.9,4-9.8s-1.1-6.2-3.2-8.9c-2.1-2.6-4.8-4.1-8.1-4.5l-2.5-.3,1.4-2.1c1.1-1.6,2-3.3,2.5-5,.6-1.7.9-3.6.9-5.6,0-5.9-2-10.3-6.1-13.5-4.1-3.3-9-4.9-14.5-4.9s-8.8.7-13.9,2.1c-4.8,1.3-10.2,3-16.3,4.9l1.9,7c5.7-1.9,10.9-3.5,15.2-4.7,4.9-1.4,9.2-2.1,12.9-2.1s6.3.8,9,2.5c3,1.8,4.5,4.7,4.5,8.7,0,6.8-3.7,9.3-6.9,10.2-3.7,1-7.2,1.9-10.6,2.6l-1.7,2.9c.8,2.4,1.6,4.5,2.2,6.2.7,2,1.1,4,1.1,5.7,0,3-1.1,5.7-3.2,7.8-2.1,2.2-4.8,3.3-7.9,3.3s-2.1-.1-3.2-.4c-.6-.2-1.2-.4-1.8-.7-.6,1-1.2,2.1-1.8,3.2-.6,1.1-1.3,2.1-1.9,3,1.1.6,2.3,1.1,3.5,1.4,1.7.5,3.4.7,5.1.7l.1.1ZM103.89,87.72c1.3-1.3,2.8-1.9,4.7-1.9s3.4.7,4.7,2c1.2,1.3,1.9,2.9,1.9,4.7s-.6,3.4-1.8,4.7c-1.2,1.3-2.8,1.9-4.6,1.9s-3.4-.7-4.8-2c-1.3-1.3-2-2.9-2-4.8s.6-3.4,1.9-4.7v.1Z"/>
  <path class="st0" d="M7.09,102.32c2.7,2.7,5.9,4,9.8,4s3.9-.4,5.8-1.3c1.8-.9,3.4-2.1,4.6-3.7l1.5-2,1.1,2.2c1.6,3.3,3.8,5.9,6.7,7.8,2.8,1.9,6.1,2.8,9.7,2.8s8.6-1.4,11.6-4.2c3.1-2.9,5.6-6.5,7.6-10.8,1.9-4.3,3.5-9,4.6-13.8,1-4.3,1.8-8.2,2.5-11.7l-7-1.9c-.4,2-.9,4.5-1.4,7.6-.7,4-1.8,8.1-3.2,12.1-1.4,4-3.2,7.6-5.4,10.6-2.4,3.3-5.5,4.9-9.2,4.9s-5.7-1.1-7.8-3.3c-2.1-2.2-3.2-4.8-3.2-7.7s.4-3.6,1.1-5.7c.6-1.8,1.4-3.8,2.2-6.3l-1.7-2.9c-3.3-.7-6.9-1.5-10.5-2.6-3.2-.9-7-3.4-7-10.2s.4-3.3,1.2-4.8c.6-1.1,1.3-2.1,2.2-2.9-.7-1.1-1.3-2.3-1.9-3.7-.4-1.1-.8-2.1-1.2-3.1-2.2,1.6-3.9,3.5-5.2,5.7-1.6,2.7-2.4,5.7-2.4,8.8s.3,3.8.9,5.6c.6,1.8,1.4,3.5,2.5,5l1.4,2.1-2.5.3c-3.3.4-5.9,1.8-8.1,4.5-2.2,2.7-3.2,5.6-3.2,8.9s1.3,7.1,4,9.8l-.1-.1ZM12.19,87.82c1.3-1.3,2.8-1.9,4.7-1.9s3.4.6,4.7,1.9c1.3,1.3,1.9,2.8,1.9,4.7s-.6,3.4-1.9,4.7c-1.3,1.3-2.8,1.9-4.7,1.9s-3.4-.6-4.7-1.9-1.9-2.8-1.9-4.7.6-3.4,1.9-4.7h0Z"/>
</svg>