<?xml version="1.0" encoding="UTF-8"?>
<svg id="Layer_1" xmlns="http://www.w3.org/2000/svg" version="1.1" viewBox="0 0 124.31 113.65">
  <!-- Generator: Adobe Illustrator 29.6.0, SVG Export Plug-In . SVG Version: 2.1.1 Build 207)  -->
  <defs>
    <style>
      .st0, .st1 {
        fill: #fff;
      }

      .st0, .st2 {
        display: none;
      }
    </style>
  </defs>
  <g class="st2">
    <path class="st1" d="M30.29,49.82c1.2,2.7,2.9,5.5,5.1,8.2,2.2,2.8,5,5.7,8.1,8.6,2.9,2.7,6.1,5.7,9.5,8.8l5.1-5.1c-3-2.7-5.8-5.2-8.3-7.5-2.9-2.7-5.4-5.2-7.4-7.6-2.1-2.4-3.7-4.7-4.8-6.9-1.2-2.3-1.8-4.6-1.8-6.8,0-3.1,1-5.7,3.1-7.8s4.7-3.1,7.8-3.1,5.8,1,7.7,2.9c1.6,1.6,3.8,4,6.6,7.3h3.3c2.7-3.1,4.8-5.5,6.4-7.1,1.9-2,4.6-3.1,8-3.1s4.8.8,6.6,2.2c1.5,1.2,2.6,2.7,3.3,4.4,1.3-.1,2.8-.2,4.3-.2s2.3,0,3.3.1c-.9-3.6-2.7-6.7-5.5-9.3-3.3-3-7.2-4.5-12-4.5h-4l.8-2.1c.3-.8.5-1.5.7-2.2.1-.7.2-1.5.2-2.3,0-3.9-1.3-7.1-4-9.8s-5.9-4-9.8-4-7.1,1.3-9.8,4c-2.7,2.7-4,5.9-4,9.8s0,1.6.2,2.4c.2.8.4,1.5.7,2.3l.8,2.1h-3.9c-5.2,0-9.4,1.7-12.9,5.2s-5.2,7.7-5.2,12.9.6,5.6,1.7,8.3l.1-.1ZM58.09,12.22c1.3-1.3,2.8-1.9,4.7-1.9s3.4.6,4.7,1.9c1.3,1.3,1.9,2.8,1.9,4.7s-.6,3.4-1.9,4.7-2.8,1.9-4.7,1.9-3.4-.6-4.7-1.9c-1.3-1.3-1.9-2.8-1.9-4.7s.6-3.4,1.9-4.7Z"/>
    <path class="st1" d="M79.19,112.22c3.7,0,7-.9,9.8-2.8,2.9-1.9,5.1-4.5,6.7-7.8l1.1-2.2,1.5,2c1.2,1.6,2.8,2.8,4.6,3.7,1.9.9,3.8,1.3,5.8,1.3,3.9,0,7.2-1.3,9.8-4,2.7-2.7,4-5.9,4-9.8s-1.1-6.2-3.2-8.9c-2.1-2.6-4.8-4.1-8.1-4.5l-2.5-.3,1.4-2.1c1.1-1.6,2-3.3,2.5-5,.6-1.7.9-3.6.9-5.6,0-5.9-2-10.3-6.1-13.5-4.1-3.3-9-4.9-14.5-4.9s-8.8.7-13.9,2.1c-4.8,1.3-10.2,3-16.3,4.9l1.9,7c5.7-1.9,10.9-3.5,15.2-4.7,4.9-1.4,9.2-2.1,12.9-2.1s6.3.8,9,2.5c3,1.8,4.5,4.7,4.5,8.7,0,6.8-3.7,9.3-6.9,10.2-3.7,1-7.2,1.9-10.6,2.6l-1.7,2.9c.8,2.4,1.6,4.5,2.2,6.2.7,2,1.1,4,1.1,5.7,0,3-1.1,5.7-3.2,7.8-2.1,2.2-4.8,3.3-7.9,3.3s-2.1-.1-3.2-.4c-.6-.2-1.2-.4-1.8-.7-.6,1-1.2,2.1-1.8,3.2-.6,1.1-1.3,2.1-1.9,3,1.1.6,2.3,1.1,3.5,1.4,1.7.5,3.4.7,5.1.7l.1.1ZM103.89,87.72c1.3-1.3,2.8-1.9,4.7-1.9s3.4.7,4.7,2c1.2,1.3,1.9,2.9,1.9,4.7s-.6,3.4-1.8,4.7c-1.2,1.3-2.8,1.9-4.6,1.9s-3.4-.7-4.8-2c-1.3-1.3-2-2.9-2-4.8s.6-3.4,1.9-4.7v.1Z"/>
    <path class="st1" d="M7.09,102.32c2.7,2.7,5.9,4,9.8,4s3.9-.4,5.8-1.3c1.8-.9,3.4-2.1,4.6-3.7l1.5-2,1.1,2.2c1.6,3.3,3.8,5.9,6.7,7.8,2.8,1.9,6.1,2.8,9.7,2.8s8.6-1.4,11.6-4.2c3.1-2.9,5.6-6.5,7.6-10.8,1.9-4.3,3.5-9,4.6-13.8,1-4.3,1.8-8.2,2.5-11.7l-7-1.9c-.4,2-.9,4.5-1.4,7.6-.7,4-1.8,8.1-3.2,12.1-1.4,4-3.2,7.6-5.4,10.6-2.4,3.3-5.5,4.9-9.2,4.9s-5.7-1.1-7.8-3.3c-2.1-2.2-3.2-4.8-3.2-7.7s.4-3.6,1.1-5.7c.6-1.8,1.4-3.8,2.2-6.3l-1.7-2.9c-3.3-.7-6.9-1.5-10.5-2.6-3.2-.9-7-3.4-7-10.2s.4-3.3,1.2-4.8c.6-1.1,1.3-2.1,2.2-2.9-.7-1.1-1.3-2.3-1.9-3.7-.4-1.1-.8-2.1-1.2-3.1-2.2,1.6-3.9,3.5-5.2,5.7-1.6,2.7-2.4,5.7-2.4,8.8s.3,3.8.9,5.6c.6,1.8,1.4,3.5,2.5,5l1.4,2.1-2.5.3c-3.3.4-5.9,1.8-8.1,4.5-2.2,2.7-3.2,5.6-3.2,8.9s1.3,7.1,4,9.8l-.1-.1ZM12.19,87.82c1.3-1.3,2.8-1.9,4.7-1.9s3.4.6,4.7,1.9c1.3,1.3,1.9,2.8,1.9,4.7s-.6,3.4-1.9,4.7c-1.3,1.3-2.8,1.9-4.7,1.9s-3.4-.6-4.7-1.9-1.9-2.8-1.9-4.7.6-3.4,1.9-4.7h0Z"/>
  </g>
  <g class="st2">
    <rect class="st1" x="91.66" y="82.34" width="8.2" height="19.4" transform="translate(-35.34 113.36) rotate(-53.1)"/>
    <rect class="st1" x="85.71" y="20" width="19.4" height="8.2" transform="translate(4.64 62.11) rotate(-36.9)"/>
    <path class="st1" d="M73.58,43.06v30.1c1.3-1.5,2.3-3.2,3.2-5.1,1.4-3,2.2-6.3,2.2-9.9s-.7-6.9-2.2-9.9c-.9-1.9-2-3.6-3.2-5.1v-.1Z"/>
    <path class="st1" d="M64.88,89.06V27.16l-26.1,15.7H15.98c-2.7,0-4.9.9-6.9,2.9s-2.9,4.2-2.9,6.9v11.2c0,2.7.9,4.9,2.9,6.9s4.2,2.9,6.9,2.9h7.1v22.4h8.2v-22.4h7.5l26.1,15.7v-.3ZM14.48,65.16v-14.2h26.6l15.6-9.3v32.7l-15.6-9.3H14.48v.1Z"/>
    <rect class="st1" x="95.98" y="53.96" width="19.4" height="8.2"/>
  </g>
  <g class="st2">
    <path class="st1" d="M48.08,61.82l.7.7c.4.4.8.7,1.3,1s1.1.6,1.8.9l.9.3.8,6.6h8.5l.8-6.6.9-.3c.7-.2,1.3-.5,1.8-.9.5-.3,1-.7,1.3-1l.7-.7,6.2,2.7,4.2-7.2-5.3-4,.2-1c.2-.6.2-1.3.2-1.9s0-1.3-.2-1.9l-.2-1,5.3-4-4.2-7.2-6.2,2.7-.7-.7c-.4-.4-.8-.7-1.3-1s-1.1-.6-1.8-.9l-.9-.3-.8-6.6h-8.5l-.8,6.6-.9.3c-.7.2-1.2.5-1.8.9-.5.3-1,.7-1.3,1l-.7.7-6.2-2.7-4.3,7.2,5.3,4-.2,1c-.2.6-.2,1.3-.2,1.9s0,1.3.2,1.9l.2,1-5.3,4,4.3,7.2,6.2-2.7ZM50.78,43.42c1.9-1.9,4.3-2.9,7-2.9s5.1,1,7,2.9,2.9,4.3,2.9,7-1,5.1-2.9,7-4.3,2.9-7,2.9-5.1-1-7-2.9-2.9-4.3-2.9-7,1-5.1,2.9-7Z"/>
    <path class="st1" d="M104.98,37.52c-2.6-10.6-8.3-19.4-17-26S69.18,1.52,57.88,1.52s-25.2,4.8-34.7,14.3-14.3,21.1-14.3,34.7,1.4,13.6,4.3,19.9c2.8,6.3,6.9,11.8,12,16.5l.5.4v23.3h8.2v-27l-3.2-2.9c-4.3-4-7.7-8.7-10.1-13.9s-3.6-10.8-3.6-16.6c0-11.2,4-20.8,11.9-28.7,7.9-7.8,17.6-11.8,28.8-11.8s17.8,2.8,25,8.3,12.1,12.8,14.3,21.6l5.8,23.6h-15.5v28h-22.4v19.4h8.2v-11.2h12.7c2.7,0,4.9-.9,6.9-2.9,1.9-1.9,2.9-4.2,2.9-6.9v-18.3h12.7c1.4,0,2.5-.5,3.3-1.6s1.1-2.2.7-3.5l-7.3-28.7h0Z"/>
  </g>
  <path class="st0" d="M88.83,111.02l25.9-25.9-30.1-30.1,22.2-22.4c1-1,1.7-2.1,2.2-3.2.5-1.2.7-2.4.7-3.7s-.2-2.6-.7-3.8-1.2-2.3-2.2-3.3l-7.4-7.6c-1-1-2.1-1.7-3.3-2.2-2.4-1-5.1-1-7.6,0-1.2.5-2.3,1.2-3.3,2.2l-22.2,22.4L32.73,3.12,6.83,29.02l30.1,30.1-25.1,25.1v21.7h21.7l25.1-25.1,30.1,30.1.1.1ZM93.23,16.82l8,8-2.1,2.1-8-8,2.1-2.1ZM88.83,70.82l-6,6.2,5.7,5.7,6.2-6,8.4,8.4-14.3,14.3-24.2-24.4,14.2-14.2,10.1,9.9-.1.1ZM18.43,29.12l14.3-14.3,8.4,8.4-6,6.2,5.7,5.7,6.2-6.2,9.9,10.1-14.1,14.3-24.4-24.3v.1ZM30.03,97.92h-10v-10l56.3-56.4,10.1,10.1-56.4,56.3Z"/>
  <g class="st2">
    <path class="st1" d="M70.68,66.92c7.3-7.3,11-16.3,11-26.7s-3.7-19.5-11-26.7S54.38,2.52,43.98,2.52s-19.5,3.7-26.7,11S6.28,29.82,6.28,40.22s3.7,19.5,11,26.7c7.3,7.3,16.3,11,26.7,11s19.5-3.7,26.7-11ZM14.38,40.12c0-8.1,2.9-15.2,8.6-20.9s12.8-8.6,20.9-8.6,15.2,2.9,20.9,8.6c5.7,5.7,8.6,12.8,8.6,20.9s-2.9,15.2-8.6,20.9c-5.7,5.7-12.8,8.6-20.9,8.6s-15.2-2.9-20.9-8.6-8.6-12.8-8.6-20.9Z"/>
    <path class="st1" d="M49.48,111.52h56c2.7,0,4.9-.9,6.9-2.9,1.9-1.9,2.9-4.2,2.9-6.9v-56c0-2.7-.9-4.9-2.9-6.9s-4.2-2.9-6.9-2.9h-9.9v8.4h11.4v59h-59v-11.4h-8.3v9.9c0,2.7.9,4.9,2.9,6.9,1.9,1.9,4.2,2.9,6.9,2.9v-.1Z"/>
  </g>
  <g class="st2">
    <path class="st1" d="M74.18,42.62c1-1.8,1.5-3.6,1.5-5.6,0-4.3-1.4-7.5-4.3-9.6-3-2.2-6.5-3.3-10.6-3.3s-6.9,1-9.5,3.1c-2.2,1.8-3.8,3.9-4.9,6.4l5.1,2c.6-1.3,1.4-2.5,2.4-3.7,1.6-1.9,3.9-2.9,6.9-2.9s5.3.9,6.8,2.6c1.5,1.7,2.3,3.6,2.3,5.7s-.6,3.7-1.7,5.2c-1,1.3-2.2,2.7-3.5,4h0c-3.9,3.4-5.2,5.2-5.6,6.2-.4.9-.8,2.8-.9,6.7h5.5c0-2.3.4-4,1-5.1.4-.8,1.4-2.4,5.6-6.6s2.9-3.3,4-5.2l-.1.1Z"/>
    <path class="st1" d="M63.68,76.12c.8-.8,1.3-1.8,1.3-3s-.4-2.2-1.3-3c-.8-.8-1.8-1.3-3-1.3s-2.2.4-3,1.3c-.8.8-1.3,1.8-1.3,3s.4,2.2,1.3,3c.8.8,1.8,1.3,3,1.3s2.2-.4,3-1.3Z"/>
    <path class="st1" d="M93.68,15.22c-4.2-4.2-9.2-7.6-14.8-10-5.6-2.4-11.6-3.6-18.1-3.6-12.9,0-23.9,4.5-32.9,13.5s-13.5,20-13.5,32.9,4.5,23.9,13.5,32.9,20,13.5,32.9,13.5h2.8l1.3,16.1c5.6-2.9,10.9-6.3,15.7-10.3,5.4-4.4,10.1-9.4,14-14.8,3.9-5.4,7-11.3,9.2-17.7,2.2-6.3,3.4-12.9,3.4-19.8s-1.2-12.5-3.6-18.1-5.8-10.5-10-14.8l.1.2ZM92.48,73.22c-4.2,7.7-9.8,14.5-16.6,20.2l-2.5,2.1v-9.3h-12.6c-10.6,0-19.7-3.7-27.1-11.1-7.4-7.4-11.1-16.5-11.1-27.1s3.7-19.7,11.1-27.1c7.4-7.4,16.5-11.1,27.1-11.1s19.7,3.7,27.1,11.1c7.4,7.4,11.1,16.5,11.1,27.1s-2.2,17.4-6.5,25.2h0Z"/>
  </g>
  <g class="st2">
    <rect class="st1" x="55.98" y="50.27" width="9.5" height="53.4"/>
    <polygon class="st1" points="115.68 75.37 81.08 75.37 81.08 84.87 93.58 84.87 93.58 103.67 103.08 103.67 103.08 84.87 115.68 84.87 115.68 75.37"/>
    <polygon class="st1" points="43.48 34.77 78.08 34.77 78.08 25.27 65.58 25.27 65.58 6.47 55.98 6.47 55.98 25.27 43.48 25.27 43.48 34.77"/>
    <rect class="st1" x="18.48" y="6.47" width="9.5" height="28.3"/>
    <polygon class="st1" points="40.48 50.27 5.88 50.27 5.88 59.77 18.48 59.77 18.48 103.67 27.98 103.67 27.98 59.77 40.48 59.77 40.48 50.27"/>
    <rect class="st1" x="93.58" y="6.47" width="9.5" height="53.4"/>
  </g>
  <g class="st2">
    <path class="st1" d="M74.43,37.57c4,3.2,6.6,7.3,8,12.1l8.6,2.6c-.8-7.4-4-13.9-9.5-19.1-6-5.7-13.3-8.7-21.8-8.7s-16.2,3.1-22.3,9.2-9.2,13.6-9.2,22.3,2.9,15.8,8.7,21.8c5.3,5.5,11.7,8.7,19.1,9.5l-2.6-8.6c-4.9-1.4-9-4-12.1-8-3.4-4.2-5.1-9.1-5.1-14.7s2.3-12,6.9-16.6,10.2-6.9,16.6-6.9,10.5,1.7,14.7,5.1h0Z"/>
    <polygon class="st1" points="115.33 102.87 91.23 78.67 109.73 72.57 62.03 58.17 76.33 105.97 82.43 87.47 106.63 111.57 115.33 102.87"/>
    <path class="st1" d="M97.63,18.17c-4.8-4.8-10.5-8.6-17-11.4-6.5-2.8-13.5-4.2-20.9-4.2s-14.4,1.4-20.9,4.2-12.2,6.6-17,11.4c-4.8,4.8-8.6,10.5-11.4,17s-4.2,13.5-4.2,20.9,1.4,14.4,4.2,20.9c2.8,6.5,6.6,12.2,11.4,17s10.5,8.6,17,11.4c6.5,2.8,13.5,4.2,20.9,4.2h3l-2.5-8h-.5c-12.6,0-23.5-4.4-32.3-13.2s-13.2-19.6-13.2-32.3,4.4-23.5,13.2-32.3c8.8-8.8,19.6-13.2,32.3-13.2s23.5,4.4,32.3,13.2,13.2,19.6,13.2,32.3v.5l8,2.5v-3c0-7.4-1.4-14.4-4.2-20.9-2.8-6.5-6.6-12.2-11.4-17h0Z"/>
  </g>
  <g class="st2">
    <path class="st1" d="M30.33,56.22v7.7h16.3c.8-1.8,1.7-3.5,2.7-5.1.6-.9,1.2-1.8,1.9-2.6h-20.9Z"/>
    <path class="st1" d="M30.33,77.72v7.7h13.7c-.2-1.3-.4-2.5-.5-3.8,0-1.3-.1-2.7,0-4h-13.1l-.1.1Z"/>
    <path class="st1" d="M18.13,2.52c-2.6,0-4.7.9-6.5,2.7s-2.7,4-2.7,6.5v85.9c0,2.6.9,4.7,2.7,6.5s4,2.7,6.5,2.7h38.5c-.8-.7-1.6-1.4-2.4-2.2-1.7-1.7-3.2-3.6-4.6-5.5H16.63V10.22h40.6v26.8h26.8v5.7c1.5.2,2.9.4,4.3.8,1.1.3,2.3.6,3.4,1v-10.6L60.43,2.62H18.13v-.1Z"/>
    <path class="st1" d="M86.23,100.62c2-.6,3.9-1.5,5.7-2.6l1-.7,14.3,14.3,5.4-5.4-14.3-14.3.7-1c1.2-1.7,2-3.7,2.6-5.7s.9-4.2.9-6.4c0-6.4-2.2-11.6-6.6-16.1-4.4-4.4-9.7-6.6-16-6.6s-11.6,2.2-16.1,6.6c-4.4,4.4-6.6,9.7-6.6,16.1s2.2,11.6,6.6,16,9.7,6.6,16.1,6.6,4.3-.3,6.4-.9l-.1.1ZM64.93,78.92c0-4.2,1.5-7.7,4.3-10.6,2.9-2.9,6.4-4.3,10.6-4.3s7.7,1.5,10.6,4.3c2.9,2.9,4.3,6.4,4.3,10.6s-1.5,7.7-4.3,10.6c-2.9,2.9-6.4,4.3-10.6,4.3s-7.7-1.5-10.6-4.3c-2.9-2.9-4.3-6.4-4.3-10.6Z"/>
  </g>
  <g>
    <path class="st1" d="M43.88,57.57c-2,0-3.6.7-4.9,2-1.4,1.4-2,3-2,4.9s.7,3.6,2,4.9c1.4,1.4,3,2,4.9,2s3.6-.7,4.9-2c1.4-1.4,2-3,2-4.9s-.7-3.6-2-4.9c-1.4-1.4-3-2-4.9-2Z"/>
    <rect class="st1" x="73.58" y="74.47" width="19.5" height="5.5"/>
    <rect class="st1" x="73.58" y="57.57" width="19.5" height="5.5"/>
    <path class="st1" d="M45.38,29.37H15.68c-2.7,0-5,.9-6.9,2.9s-2.9,4.2-2.9,6.9v62c0,2.7.9,5,2.9,6.9,1.9,1.9,4.2,2.9,6.9,2.9h90.2c2.7,0,5-.9,6.9-2.9,1.9-1.9,2.9-4.2,2.9-6.9v-62c0-2.7-.9-5-2.9-6.9s-4.2-2.9-6.9-2.9h-29.7V10.97c0-2.7-.9-5-2.9-6.9-1.9-1.9-4.2-2.9-6.9-2.9h-11.3c-2.7,0-5,.9-6.9,2.9s-2.9,4.2-2.9,6.9v18.4h.1ZM53.68,9.47h14.3v31.2h-14.3V9.47ZM55.18,48.87h11.3c2.7,0,5-.9,6.9-2.9,1.9-1.9,2.9-4.2,2.9-6.9v-1.5h31.2v65H14.28V37.57h31.2v1.5c0,2.7.9,5,2.9,6.9s4.2,2.9,6.9,2.9h-.1Z"/>
    <path class="st1" d="M55.08,81.07c-1.8-.8-3.6-1.4-5.4-1.8-3.6-.8-8-.8-11.6,0-1.8.4-3.6,1-5.4,1.8-1.3.6-2.4,1.5-3.1,2.6-.7,1.1-1.1,2.3-1.1,3.6v1h30.8v-1c0-1.3-.4-2.5-1.1-3.6-.7-1.1-1.8-2-3.1-2.6h0Z"/>
  </g>
</svg>