<?xml version="1.0" encoding="UTF-8"?>
<svg id="Layer_1" xmlns="http://www.w3.org/2000/svg" version="1.1" viewBox="0 0 53.31 41.43">
  <!-- Generator: Adobe Illustrator 29.6.0, SVG Export Plug-In . SVG Version: 2.1.1 Build 207)  -->
  <defs>
    <style>
      .st0 {
        fill: #fff;
      }
    </style>
  </defs>
  <path class="st0" d="M41.41,23.05v-5h10v5h-10ZM44.41,40.55l-8-6,3-4,8,6-3,4ZM39.41,10.55l-3-4L44.41.55l3,4-8,6ZM8.91,38.05v-10h-2.5c-1.38,0-2.55-.49-3.53-1.47-.98-.98-1.47-2.16-1.47-3.53v-5c0-1.38.49-2.55,1.47-3.53s2.16-1.47,3.53-1.47h10l12.5-7.5v30l-12.5-7.5h-2.5v10h-5ZM23.91,26.68v-12.25l-6.12,3.62H6.41v5h11.38l6.12,3.62ZM31.41,28.93V12.18c1.12,1,2.03,2.22,2.72,3.66s1.03,3.01,1.03,4.72-.34,3.28-1.03,4.72-1.59,2.66-2.72,3.66Z"/>
</svg>