<?xml version="1.0" encoding="UTF-8"?>
<svg id="Layer_1" xmlns="http://www.w3.org/2000/svg" version="1.1" viewBox="0 0 48.77 51">
  <!-- Generator: Adobe Illustrator 29.6.0, SVG Export Plug-In . SVG Version: 2.1.1 Build 207)  -->
  <defs>
    <style>
      .st0 {
        fill: #fff;
      }
    </style>
  </defs>
  <path class="st0" d="M8,50.5v-10.75c-2.38-2.17-4.22-4.7-5.53-7.59-1.31-2.9-1.97-5.95-1.97-9.16,0-6.25,2.19-11.56,6.56-15.94S16.75.5,23,.5c5.21,0,9.82,1.53,13.84,4.59,4.02,3.06,6.64,7.05,7.84,11.97l3.25,12.81c.21.79.06,1.51-.44,2.16s-1.17.97-2,.97h-5v7.5c0,1.38-.49,2.55-1.47,3.53s-2.16,1.47-3.53,1.47h-5v5h-5v-10h10v-12.5h6.75l-2.38-9.69c-.96-3.79-3-6.88-6.12-9.25s-6.71-3.56-10.75-3.56c-4.83,0-8.96,1.69-12.38,5.06-3.42,3.38-5.12,7.48-5.12,12.31,0,2.5.51,4.88,1.53,7.12s2.47,4.25,4.34,6l1.62,1.5v13h-5ZM20.5,33h5l.38-3.12c.33-.12.64-.27.91-.44s.51-.35.72-.56l2.88,1.25,2.5-4.25-2.5-1.88c.08-.33.12-.67.12-1s-.04-.67-.12-1l2.5-1.88-2.5-4.25-2.88,1.25c-.21-.21-.45-.4-.72-.56s-.57-.31-.91-.44l-.38-3.12h-5l-.38,3.12c-.33.12-.64.27-.91.44s-.51.35-.72.56l-2.88-1.25-2.5,4.25,2.5,1.88c-.08.33-.12.67-.12,1s.04.67.12,1l-2.5,1.88,2.5,4.25,2.88-1.25c.21.21.45.4.72.56s.57.31.91.44l.38,3.12ZM23,26.75c-1.04,0-1.93-.36-2.66-1.09s-1.09-1.61-1.09-2.66.36-1.93,1.09-2.66,1.61-1.09,2.66-1.09,1.93.36,2.66,1.09c.73.73,1.09,1.61,1.09,2.66s-.36,1.93-1.09,2.66c-.73.73-1.61,1.09-2.66,1.09Z"/>
</svg>