<?xml version="1.0" encoding="UTF-8"?>
<svg id="Layer_1" xmlns="http://www.w3.org/2000/svg" version="1.1" viewBox="0 0 51.41 51.41">
  <!-- Generator: Adobe Illustrator 29.6.0, SVG Export Plug-In . SVG Version: 2.1.1 Build 207)  -->
  <defs>
    <style>
      .st0 {
        fill: #fff;
      }
    </style>
  </defs>
  <path class="st0" d="M17.71,23.08l5.38-5.44-3.5-3.56-2.75,2.75-3.5-3.5,2.69-2.75-2.81-2.81-5.44,5.44,9.94,9.88ZM38.21,43.64l5.44-5.44-2.81-2.81-2.75,2.69-3.5-3.5,2.69-2.75-3.56-3.5-5.38,5.38,9.88,9.94ZM39.71,8.21l3.56,3.56-3.56-3.56ZM13.83,48.21H3.21v-10.62l10.94-10.94L.71,13.21,13.21.71l13.5,13.5,9.44-9.5c.5-.5,1.06-.88,1.69-1.12s1.27-.38,1.94-.38,1.31.12,1.94.38,1.19.62,1.69,1.12l3.31,3.38c.5.5.88,1.06,1.12,1.69s.38,1.27.38,1.94-.12,1.3-.38,1.91-.62,1.16-1.12,1.66l-9.44,9.5,13.44,13.44-12.5,12.5-13.44-13.44-10.94,10.94ZM8.21,43.21h3.5l24.5-24.44-3.56-3.56-24.44,24.5v3.5ZM34.46,17.02l-1.81-1.81,3.56,3.56-1.75-1.75Z"/>
</svg>